<!--?xml version="1.0" standalone="no"?-->
              <svg id="sw-js-blob-svg" viewBox="0 0 100 100" xmlns="http://www.w3.org/2000/svg" version="1.1">
                    <defs> 
                        <linearGradient id="sw-gradient" x1="0" x2="1" y1="1" y2="0">
                            <stop id="stop1" stop-color="rgba(237, 34, 40, 1)" offset="0%"></stop>
                            <stop id="stop2" stop-color="rgba(233.442, 77.841, 82.44, 1)" offset="100%"></stop>
                        </linearGradient>
                    </defs>
                <path fill="url(#sw-gradient)" d="M19.8,-33.5C25.9,-30.8,31.3,-26,34.9,-20.1C38.4,-14.1,40.2,-7.1,38.9,-0.8C37.6,5.6,33.2,11.1,29.8,17.3C26.4,23.4,23.8,30.2,19,33C14.2,35.8,7.1,34.8,-0.1,34.9C-7.3,35.1,-14.6,36.5,-20,34C-25.4,31.5,-28.9,25.1,-31.9,18.8C-34.9,12.5,-37.4,6.2,-37,0.2C-36.6,-5.7,-33.2,-11.5,-29.7,-16.9C-26.2,-22.4,-22.5,-27.5,-17.6,-30.9C-12.6,-34.4,-6.3,-36,0.3,-36.5C6.9,-37,13.7,-36.3,19.8,-33.5Z" width="100%" height="100%" transform="translate(50 50)" stroke-width="0" style="transition: all 0.3s ease 0s;" stroke="url(#sw-gradient)"></path>
              </svg>