<svg width="25" height="25" viewBox="0 0 25 25" fill="none" xmlns="http://www.w3.org/2000/svg">
<g clip-path="url(#clip0_1287_2324)">
<path fill-rule="evenodd" clip-rule="evenodd" d="M22.5801 4.81207V20.3677C22.5801 20.957 22.346 21.5223 21.9292 21.939C21.5125 22.3557 20.9472 22.5899 20.3579 22.5899H16.1912C16.0439 22.5899 15.9026 22.5313 15.7984 22.4272C15.6942 22.323 15.6357 22.1817 15.6357 22.0343V15.3677H18.2357C18.3637 15.3677 18.4879 15.3235 18.5871 15.2425C18.6863 15.1615 18.7545 15.0487 18.7801 14.9232L19.1801 12.9232C19.1883 12.8833 19.1875 12.8421 19.178 12.8025C19.1684 12.7629 19.1503 12.7259 19.1249 12.6941C19.0994 12.6623 19.0673 12.6364 19.0307 12.6184C18.9942 12.6004 18.9542 12.5907 18.9134 12.5899H15.6357V8.97873C15.6357 8.90506 15.6649 8.83441 15.717 8.78231C15.7691 8.73022 15.8398 8.70095 15.9134 8.70095H18.6912C18.8386 8.70095 18.9799 8.64242 19.084 8.53824C19.1882 8.43405 19.2468 8.29274 19.2468 8.1454V6.47873C19.2468 6.33139 19.1882 6.19008 19.084 6.0859C18.9799 5.98171 18.8386 5.92318 18.6912 5.92318H15.9134C15.0294 5.92318 14.1815 6.27437 13.5564 6.89949C12.9313 7.52461 12.5801 8.37246 12.5801 9.25651V12.5899H11.2134C11.0661 12.5899 10.9248 12.6484 10.8206 12.7526C10.7164 12.8568 10.6579 12.9981 10.6579 13.1454V14.8121C10.6579 14.9594 10.7164 15.1007 10.8206 15.2049C10.9248 15.3091 11.0661 15.3677 11.2134 15.3677H12.5801V22.0343C12.5801 22.1817 12.5216 22.323 12.4174 22.4272C12.3132 22.5313 12.1719 22.5899 12.0245 22.5899H4.8023C4.21293 22.5899 3.6477 22.3557 3.23095 21.939C2.81421 21.5223 2.58008 20.957 2.58008 20.3677V4.81207C2.58008 4.2227 2.81421 3.65746 3.23095 3.24072C3.6477 2.82397 4.21293 2.58984 4.8023 2.58984H20.3579C20.9472 2.58984 21.5125 2.82397 21.9292 3.24072C22.346 3.65746 22.5801 4.2227 22.5801 4.81207Z" fill="white" fill-opacity="0.7"/>
</g>
<defs>
<clipPath id="clip0_1287_2324">
<rect width="24" height="24" fill="white" transform="translate(0.580078 0.589844)"/>
</clipPath>
</defs>
</svg>
