<svg width="145" height="53" viewBox="0 0 145 53" fill="none" xmlns="http://www.w3.org/2000/svg">
<circle cx="25.0273" cy="25" r="25" fill="#ED2228"/>
<g clip-path="url(#clip0_1287_2341)">
<path d="M24.9988 23.5582C26.3386 23.5582 27.6483 23.1609 28.7623 22.4165C29.8764 21.6721 30.7446 20.6142 31.2573 19.3763C31.7701 18.1385 31.9042 16.7764 31.6428 15.4624C31.3815 14.1483 30.7363 12.9413 29.7889 11.9939C28.8415 11.0465 27.6344 10.4013 26.3204 10.1399C25.0063 9.87855 23.6443 10.0127 22.4064 10.5254C21.1686 11.0381 20.1106 11.9064 19.3663 13.0204C18.6219 14.1344 18.2246 15.4442 18.2246 16.784C18.2246 18.5806 18.9383 20.3036 20.2087 21.574C21.4791 22.8444 23.2022 23.5582 24.9988 23.5582ZM24.9988 10.9775C26.1472 10.9775 27.2698 11.3181 28.2247 11.9561C29.1796 12.5941 29.9238 13.5009 30.3633 14.5619C30.8027 15.6229 30.9177 16.7904 30.6937 17.9167C30.4696 19.0431 29.9166 20.0777 29.1046 20.8897C28.2925 21.7018 27.2579 22.2548 26.1316 22.4788C25.0052 22.7029 23.8378 22.5879 22.7768 22.1484C21.7158 21.7089 20.8089 20.9647 20.1709 20.0099C19.5329 19.055 19.1924 17.9324 19.1924 16.784C19.1924 15.244 19.8041 13.7671 20.893 12.6782C21.9819 11.5893 23.4588 10.9775 24.9988 10.9775Z" fill="#F8F9FA"/>
<path d="M34.4343 31.5419C34.4352 31.8772 34.5139 32.2077 34.6642 32.5074C34.8145 32.8072 35.0323 33.068 35.3004 33.2693C34.7258 33.3517 34.1999 33.638 33.8188 34.076C33.4378 34.5139 33.2269 35.0743 33.2246 35.6548V38.558C33.2246 38.6863 33.2756 38.8094 33.3663 38.9002C33.4571 38.9909 33.5801 39.0419 33.7085 39.0419H39.5149C39.6433 39.0419 39.7663 38.9909 39.8571 38.9002C39.9478 38.8094 39.9988 38.6863 39.9988 38.558V35.6548C39.9966 35.0743 39.7856 34.5139 39.4046 34.076C39.0235 33.638 38.4976 33.3517 37.923 33.2693C38.2171 33.0453 38.4493 32.75 38.5974 32.4113C38.7456 32.0725 38.8048 31.7016 38.7695 31.3336C38.7343 30.9656 38.6057 30.6126 38.396 30.3082C38.1862 30.0037 37.9022 29.7578 37.5709 29.5938C37.2396 29.4297 36.8719 29.3529 36.5026 29.3707C36.1333 29.3884 35.7747 29.5001 35.4606 29.6952C35.1465 29.8902 34.8874 30.1622 34.7078 30.4854C34.5282 30.8085 34.4341 31.1722 34.4343 31.5419ZM39.0311 35.6548V38.0741H34.1924V35.6548C34.1924 35.2698 34.3453 34.9006 34.6175 34.6283C34.8898 34.3561 35.259 34.2032 35.644 34.2032H37.5794C37.9644 34.2032 38.3337 34.3561 38.6059 34.6283C38.8781 34.9006 39.0311 35.2698 39.0311 35.6548ZM37.8214 31.5419C37.8214 31.7811 37.7504 32.015 37.6175 32.2139C37.4846 32.4129 37.2957 32.5679 37.0746 32.6595C36.8536 32.751 36.6104 32.775 36.3757 32.7283C36.1411 32.6816 35.9255 32.5664 35.7563 32.3973C35.5872 32.2281 35.4719 32.0125 35.4253 31.7779C35.3786 31.5432 35.4026 31.3 35.4941 31.079C35.5857 30.8579 35.7407 30.669 35.9396 30.5361C36.1386 30.4032 36.3725 30.3322 36.6117 30.3322C36.9325 30.3322 37.2402 30.4597 37.4671 30.6865C37.6939 30.9134 37.8214 31.2211 37.8214 31.5419Z" fill="#F8F9FA"/>
<path d="M21.6123 36.6225V39.5257C21.6123 39.654 21.6633 39.7771 21.754 39.8679C21.8448 39.9586 21.9678 40.0096 22.0962 40.0096H27.9026C28.031 40.0096 28.154 39.9586 28.2448 39.8679C28.3355 39.7771 28.3865 39.654 28.3865 39.5257V36.6225C28.3843 36.042 28.1733 35.4816 27.7923 35.0437C27.4112 34.6057 26.8853 34.3194 26.3107 34.237C26.6751 33.9621 26.9439 33.5796 27.0791 33.1436C27.2143 32.7076 27.2091 32.2401 27.0641 31.8073C26.9192 31.3744 26.6418 30.9981 26.2713 30.7314C25.9008 30.4648 25.4559 30.3213 24.9994 30.3213C24.5429 30.3213 24.098 30.4648 23.7275 30.7314C23.357 30.9981 23.0796 31.3744 22.9347 31.8073C22.7897 32.2401 22.7845 32.7076 22.9197 33.1436C23.0549 33.5796 23.3237 33.9621 23.6881 34.237C23.1135 34.3194 22.5876 34.6057 22.2065 35.0437C21.8255 35.4816 21.6146 36.042 21.6123 36.6225ZM24.9994 31.2999C25.2387 31.2999 25.4725 31.3709 25.6715 31.5038C25.8704 31.6367 26.0254 31.8256 26.117 32.0467C26.2086 32.2677 26.2325 32.5109 26.1858 32.7456C26.1392 32.9802 26.024 33.1958 25.8548 33.365C25.6856 33.5341 25.4701 33.6493 25.2354 33.696C25.0007 33.7427 24.7575 33.7187 24.5365 33.6272C24.3154 33.5356 24.1265 33.3806 23.9936 33.1816C23.8607 32.9827 23.7897 32.7488 23.7897 32.5096C23.7897 32.1888 23.9172 31.8811 24.144 31.6542C24.3709 31.4274 24.6786 31.2999 24.9994 31.2999ZM22.58 36.6225C22.58 36.2375 22.733 35.8683 23.0052 35.596C23.2774 35.3238 23.6467 35.1709 24.0317 35.1709H25.9671C26.3521 35.1709 26.7214 35.3238 26.9936 35.596C27.2658 35.8683 27.4188 36.2375 27.4188 36.6225V39.0418H22.58V36.6225Z" fill="#F8F9FA"/>
<path d="M10.4829 39.0418H16.2893C16.4177 39.0418 16.5408 38.9908 16.6315 38.9001C16.7222 38.8093 16.7732 38.6863 16.7732 38.5579V35.6547C16.771 35.0742 16.5601 34.5138 16.179 34.0759C15.7979 33.638 15.2721 33.3517 14.6974 33.2692C15.0618 32.9943 15.3306 32.6118 15.4658 32.1758C15.601 31.7398 15.5958 31.2724 15.4508 30.8395C15.3059 30.4066 15.0286 30.0303 14.6581 29.7636C14.2875 29.497 13.8426 29.3535 13.3861 29.3535C12.9296 29.3535 12.4847 29.497 12.1142 29.7636C11.7437 30.0303 11.4664 30.4066 11.3214 30.8395C11.1764 31.2724 11.1712 31.7398 11.3064 32.1758C11.4416 32.6118 11.7104 32.9943 12.0748 33.2692C11.5002 33.3517 10.9743 33.638 10.5933 34.0759C10.2122 34.5138 10.0013 35.0742 9.99902 35.6547V38.5579C9.99902 38.6863 10.05 38.8093 10.1407 38.9001C10.2315 38.9908 10.3546 39.0418 10.4829 39.0418ZM13.3861 30.3321C13.6254 30.3321 13.8593 30.4031 14.0582 30.536C14.2571 30.6689 14.4122 30.8578 14.5037 31.0789C14.5953 31.2999 14.6192 31.5432 14.5726 31.7778C14.5259 32.0125 14.4107 32.228 14.2415 32.3972C14.0723 32.5664 13.8568 32.6816 13.6221 32.7282C13.3875 32.7749 13.1442 32.751 12.9232 32.6594C12.7022 32.5679 12.5132 32.4128 12.3803 32.2139C12.2474 32.0149 12.1764 31.7811 12.1764 31.5418C12.1764 31.221 12.3039 30.9133 12.5307 30.6864C12.7576 30.4596 13.0653 30.3321 13.3861 30.3321ZM10.9668 35.6547C10.9668 35.2697 11.1197 34.9005 11.3919 34.6283C11.6642 34.356 12.0334 34.2031 12.4184 34.2031H14.3539C14.7389 34.2031 15.1081 34.356 15.3803 34.6283C15.6525 34.9005 15.8055 35.2697 15.8055 35.6547V38.0741H10.9668V35.6547Z" fill="#F8F9FA"/>
<path d="M21.6118 18.4776H23.3053V20.1712C23.3053 20.2995 23.3563 20.4226 23.4471 20.5133C23.5378 20.604 23.6609 20.655 23.7892 20.655H26.2086C26.3369 20.655 26.46 20.604 26.5507 20.5133C26.6415 20.4226 26.6924 20.2995 26.6924 20.1712V18.4776H28.386C28.5143 18.4776 28.6374 18.4266 28.7281 18.3359C28.8189 18.2451 28.8699 18.1221 28.8699 17.9937V15.5744C28.8699 15.446 28.8189 15.323 28.7281 15.2322C28.6374 15.1415 28.5143 15.0905 28.386 15.0905H26.6924V13.397C26.6924 13.2686 26.6415 13.1456 26.5507 13.0548C26.46 12.9641 26.3369 12.9131 26.2086 12.9131H23.7892C23.6609 12.9131 23.5378 12.9641 23.4471 13.0548C23.3563 13.1456 23.3053 13.2686 23.3053 13.397V15.0905H21.6118C21.4835 15.0905 21.3604 15.1415 21.2697 15.2322C21.1789 15.323 21.1279 15.446 21.1279 15.5744V17.9937C21.1279 18.1221 21.1789 18.2451 21.2697 18.3359C21.3604 18.4266 21.4835 18.4776 21.6118 18.4776ZM22.0957 16.0582H23.7892C23.9176 16.0582 24.0406 16.0073 24.1314 15.9165C24.2221 15.8258 24.2731 15.7027 24.2731 15.5744V13.8808H25.7247V15.5744C25.7247 15.7027 25.7757 15.8258 25.8664 15.9165C25.9572 16.0073 26.0802 16.0582 26.2086 16.0582H27.9021V17.5099H26.2086C26.0802 17.5099 25.9572 17.5608 25.8664 17.6516C25.7757 17.7423 25.7247 17.8654 25.7247 17.9937V19.6873H24.2731V17.9937C24.2731 17.8654 24.2221 17.7423 24.1314 17.6516C24.0406 17.5608 23.9176 17.5099 23.7892 17.5099H22.0957V16.0582Z" fill="#F8F9FA"/>
<path d="M25.4834 25.0098H24.5156V28.8807H25.4834V25.0098Z" fill="#F8F9FA"/>
<path d="M13.8701 25.7454L18.5007 22.5035L17.9491 21.71L13.1104 25.0971C13.0463 25.1415 12.9939 25.2008 12.9577 25.2699C12.9215 25.339 12.9025 25.4158 12.9023 25.4938V27.9132H13.8701V25.7454Z" fill="#F8F9FA"/>
<path d="M36.1277 25.7454V27.9132H37.0955V25.4938C37.0953 25.4158 37.0763 25.339 37.0401 25.2699C37.0039 25.2008 36.9515 25.1415 36.8874 25.0971L32.0487 21.71L31.4971 22.5035L36.1277 25.7454Z" fill="#F8F9FA"/>
</g>
<path d="M73.1249 33.5H69.1919L62.6139 23.541V33.5H58.6809V17.354H62.6139L69.1919 27.359V17.354H73.1249V33.5ZM79.9088 20.505V23.771H85.1758V26.807H79.9088V30.349H85.8658V33.5H75.9758V17.354H85.8658V20.505H79.9088ZM98.3092 33.5L95.0202 28.555L92.1222 33.5H87.6602L92.8352 25.289L87.5452 17.354H92.1222L95.3652 22.23L98.2172 17.354H102.679L97.5502 25.496L102.886 33.5H98.3092ZM108.725 17.354V27.014C108.725 27.98 108.962 28.7237 109.438 29.245C109.913 29.7663 110.611 30.027 111.531 30.027C112.451 30.027 113.156 29.7663 113.647 29.245C114.137 28.7237 114.383 27.98 114.383 27.014V17.354H118.316V26.991C118.316 28.4323 118.009 29.6513 117.396 30.648C116.782 31.6447 115.954 32.396 114.912 32.902C113.884 33.408 112.734 33.661 111.462 33.661C110.189 33.661 109.047 33.4157 108.035 32.925C107.038 32.419 106.248 31.6677 105.666 30.671C105.083 29.659 104.792 28.4323 104.792 26.991V17.354H108.725ZM126.919 33.661C125.739 33.661 124.681 33.4693 123.745 33.086C122.81 32.7027 122.059 32.1353 121.491 31.384C120.939 30.6327 120.648 29.728 120.617 28.67H124.803C124.865 29.268 125.072 29.728 125.424 30.05C125.777 30.3567 126.237 30.51 126.804 30.51C127.387 30.51 127.847 30.3797 128.184 30.119C128.522 29.843 128.69 29.4673 128.69 28.992C128.69 28.5933 128.552 28.2637 128.276 28.003C128.016 27.7423 127.686 27.5277 127.287 27.359C126.904 27.1903 126.352 26.9987 125.631 26.784C124.589 26.462 123.738 26.14 123.078 25.818C122.419 25.496 121.852 25.0207 121.376 24.392C120.901 23.7633 120.663 22.943 120.663 21.931C120.663 20.4283 121.208 19.2553 122.296 18.412C123.385 17.5533 124.803 17.124 126.551 17.124C128.33 17.124 129.764 17.5533 130.852 18.412C131.941 19.2553 132.524 20.436 132.6 21.954H128.345C128.315 21.4327 128.123 21.0263 127.77 20.735C127.418 20.4283 126.965 20.275 126.413 20.275C125.938 20.275 125.555 20.4053 125.263 20.666C124.972 20.9113 124.826 21.2717 124.826 21.747C124.826 22.2683 125.072 22.6747 125.562 22.966C126.053 23.2573 126.82 23.5717 127.862 23.909C128.905 24.2617 129.748 24.599 130.392 24.921C131.052 25.243 131.619 25.7107 132.094 26.324C132.57 26.9373 132.807 27.727 132.807 28.693C132.807 29.613 132.57 30.4487 132.094 31.2C131.634 31.9513 130.96 32.5493 130.07 32.994C129.181 33.4387 128.131 33.661 126.919 33.661Z" fill="white"/>
<path d="M58.729 41.0098V39.2093L58.9175 39.7293L56.9415 36.4598H57.845L59.431 39.0923H58.924L60.523 36.4598H61.355L59.379 39.7293L59.574 39.2093V41.0098H58.729ZM63.3282 41.0553C62.9728 41.0553 62.6565 40.9794 62.3792 40.8278C62.1018 40.6718 61.883 40.4594 61.7227 40.1908C61.5623 39.9221 61.4822 39.6166 61.4822 39.2743C61.4822 38.9276 61.5623 38.6221 61.7227 38.3578C61.883 38.0891 62.1018 37.8789 62.3792 37.7273C62.6565 37.5756 62.9728 37.4998 63.3282 37.4998C63.6878 37.4998 64.0063 37.5756 64.2837 37.7273C64.5653 37.8789 64.7842 38.0869 64.9402 38.3513C65.1005 38.6156 65.1807 38.9233 65.1807 39.2743C65.1807 39.6166 65.1005 39.9221 64.9402 40.1908C64.7842 40.4594 64.5653 40.6718 64.2837 40.8278C64.0063 40.9794 63.6878 41.0553 63.3282 41.0553ZM63.3282 40.3598C63.5275 40.3598 63.7052 40.3164 63.8612 40.2298C64.0172 40.1431 64.1385 40.0174 64.2252 39.8528C64.3162 39.6881 64.3617 39.4953 64.3617 39.2743C64.3617 39.0489 64.3162 38.8561 64.2252 38.6958C64.1385 38.5311 64.0172 38.4054 63.8612 38.3188C63.7052 38.2321 63.5297 38.1888 63.3347 38.1888C63.1353 38.1888 62.9577 38.2321 62.8017 38.3188C62.65 38.4054 62.5287 38.5311 62.4377 38.6958C62.3467 38.8561 62.3012 39.0489 62.3012 39.2743C62.3012 39.4953 62.3467 39.6881 62.4377 39.8528C62.5287 40.0174 62.65 40.1431 62.8017 40.2298C62.9577 40.3164 63.1332 40.3598 63.3282 40.3598ZM67.7516 41.0553C67.4569 41.0553 67.1969 41.0011 66.9716 40.8928C66.7463 40.7801 66.5708 40.6111 66.4451 40.3858C66.3194 40.1561 66.2566 39.8679 66.2566 39.5213V37.5388H67.0691V39.4108C67.0691 39.7228 67.1384 39.9568 67.2771 40.1128C67.4201 40.2644 67.6216 40.3403 67.8816 40.3403C68.0723 40.3403 68.2369 40.3013 68.3756 40.2233C68.5186 40.1453 68.6291 40.0283 68.7071 39.8723C68.7894 39.7163 68.8306 39.5234 68.8306 39.2938V37.5388H69.6431V41.0098H68.8696V40.0738L69.0061 40.3598C68.8891 40.5851 68.7179 40.7584 68.4926 40.8798C68.2673 40.9968 68.0203 41.0553 67.7516 41.0553ZM71.0319 41.0098V37.5388H71.8054V38.4943L71.7144 38.2148C71.8184 37.9808 71.9809 37.8031 72.2019 37.6818C72.4273 37.5604 72.7068 37.4998 73.0404 37.4998V38.2733C73.0058 38.2646 72.9733 38.2603 72.9429 38.2603C72.9126 38.2559 72.8823 38.2538 72.8519 38.2538C72.5443 38.2538 72.2994 38.3448 72.1174 38.5268C71.9354 38.7044 71.8444 38.9709 71.8444 39.3263V41.0098H71.0319ZM78.1773 37.4998C78.4546 37.4998 78.7016 37.5539 78.9183 37.6623C79.1393 37.7706 79.3126 37.9374 79.4383 38.1628C79.564 38.3838 79.6268 38.6698 79.6268 39.0208V41.0098H78.8143V39.1248C78.8143 38.8171 78.7406 38.5874 78.5933 38.4358C78.4503 38.2841 78.2488 38.2083 77.9888 38.2083C77.7981 38.2083 77.6291 38.2473 77.4818 38.3253C77.3345 38.4033 77.2196 38.5203 77.1373 38.6763C77.0593 38.8279 77.0203 39.0208 77.0203 39.2548V41.0098H76.2078V36.1868H77.0203V38.4748L76.8448 38.1888C76.9661 37.9678 77.1416 37.7988 77.3713 37.6818C77.6053 37.5604 77.874 37.4998 78.1773 37.4998ZM82.6204 41.0553C82.2347 41.0553 81.8967 40.9794 81.6064 40.8278C81.3204 40.6718 81.0972 40.4594 80.9369 40.1908C80.7809 39.9221 80.7029 39.6166 80.7029 39.2743C80.7029 38.9276 80.7787 38.6221 80.9304 38.3578C81.0864 38.0891 81.2987 37.8789 81.5674 37.7273C81.8404 37.5756 82.1502 37.4998 82.4969 37.4998C82.8349 37.4998 83.136 37.5734 83.4004 37.7208C83.6647 37.8681 83.8727 38.0761 84.0244 38.3448C84.176 38.6134 84.2519 38.9298 84.2519 39.2938C84.2519 39.3284 84.2497 39.3674 84.2454 39.4108C84.2454 39.4541 84.2432 39.4953 84.2389 39.5343H81.3464V38.9948H83.8099L83.4914 39.1638C83.4957 38.9644 83.4545 38.7889 83.3679 38.6373C83.2812 38.4856 83.162 38.3664 83.0104 38.2798C82.863 38.1931 82.6919 38.1498 82.4969 38.1498C82.2975 38.1498 82.122 38.1931 81.9704 38.2798C81.823 38.3664 81.706 38.4878 81.6194 38.6438C81.537 38.7954 81.4959 38.9753 81.4959 39.1833V39.3133C81.4959 39.5213 81.5435 39.7054 81.6389 39.8658C81.7342 40.0261 81.8685 40.1496 82.0419 40.2363C82.2152 40.3229 82.4145 40.3663 82.6399 40.3663C82.8349 40.3663 83.0104 40.3359 83.1664 40.2753C83.3224 40.2146 83.461 40.1193 83.5824 39.9893L84.0179 40.4898C83.8619 40.6718 83.6647 40.8126 83.4264 40.9123C83.1924 41.0076 82.9237 41.0553 82.6204 41.0553ZM87.4006 41.0098V40.3078L87.3551 40.1583V38.9298C87.3551 38.6914 87.2836 38.5073 87.1406 38.3773C86.9976 38.2429 86.7809 38.1758 86.4906 38.1758C86.2956 38.1758 86.1028 38.2061 85.9121 38.2668C85.7258 38.3274 85.5676 38.4119 85.4376 38.5203L85.1191 37.9288C85.3054 37.7858 85.5264 37.6796 85.7821 37.6103C86.0421 37.5366 86.3108 37.4998 86.5881 37.4998C87.0908 37.4998 87.4786 37.6211 87.7516 37.8638C88.0289 38.1021 88.1676 38.4726 88.1676 38.9753V41.0098H87.4006ZM86.3086 41.0553C86.0486 41.0553 85.8211 41.0119 85.6261 40.9253C85.4311 40.8343 85.2794 40.7108 85.1711 40.5548C85.0671 40.3944 85.0151 40.2146 85.0151 40.0153C85.0151 39.8203 85.0606 39.6448 85.1516 39.4888C85.2469 39.3328 85.4008 39.2093 85.6131 39.1183C85.8254 39.0273 86.1071 38.9818 86.4581 38.9818H87.4656V39.5213H86.5166C86.2393 39.5213 86.0529 39.5668 85.9576 39.6578C85.8623 39.7444 85.8146 39.8528 85.8146 39.9828C85.8146 40.1301 85.8731 40.2471 85.9901 40.3338C86.1071 40.4204 86.2696 40.4638 86.4776 40.4638C86.6769 40.4638 86.8546 40.4183 87.0106 40.3273C87.1709 40.2363 87.2858 40.1019 87.3551 39.9243L87.4916 40.4118C87.4136 40.6154 87.2728 40.7736 87.0691 40.8863C86.8698 40.9989 86.6163 41.0553 86.3086 41.0553ZM89.5353 41.0098V36.1868H90.3478V41.0098H89.5353ZM93.2171 41.0553C92.8358 41.0553 92.5411 40.9578 92.3331 40.7628C92.1251 40.5634 92.0211 40.2709 92.0211 39.8853V36.7718H92.8336V39.8658C92.8336 40.0304 92.8748 40.1583 92.9571 40.2493C93.0438 40.3403 93.163 40.3858 93.3146 40.3858C93.4966 40.3858 93.6483 40.3381 93.7696 40.2428L93.9971 40.8213C93.9018 40.8993 93.7848 40.9578 93.6461 40.9968C93.5075 41.0358 93.3645 41.0553 93.2171 41.0553ZM91.4491 38.2148V37.5648H93.7631V38.2148H91.4491ZM96.96 37.4998C97.2374 37.4998 97.4844 37.5539 97.701 37.6623C97.922 37.7706 98.0954 37.9374 98.221 38.1628C98.3467 38.3838 98.4095 38.6698 98.4095 39.0208V41.0098H97.597V39.1248C97.597 38.8171 97.5234 38.5874 97.376 38.4358C97.233 38.2841 97.0315 38.2083 96.7715 38.2083C96.5809 38.2083 96.4119 38.2473 96.2645 38.3253C96.1172 38.4033 96.0024 38.5203 95.92 38.6763C95.842 38.8279 95.803 39.0208 95.803 39.2548V41.0098H94.9905V36.1868H95.803V38.4748L95.6275 38.1888C95.7489 37.9678 95.9244 37.7988 96.154 37.6818C96.388 37.5604 96.6567 37.4998 96.96 37.4998ZM99.5507 41.9913L99.9277 40.5548L100.038 41.0358C99.8866 41.0358 99.7587 40.9903 99.6547 40.8993C99.5551 40.8039 99.5052 40.6761 99.5052 40.5158C99.5052 40.3511 99.5551 40.2211 99.6547 40.1258C99.7587 40.0261 99.8844 39.9763 100.032 39.9763C100.183 39.9763 100.309 40.0261 100.409 40.1258C100.508 40.2254 100.558 40.3554 100.558 40.5158C100.558 40.5591 100.554 40.6068 100.545 40.6588C100.537 40.7064 100.521 40.7628 100.5 40.8278C100.482 40.8928 100.452 40.9751 100.409 41.0748L100.077 41.9913H99.5507ZM105.359 41.0553C105.003 41.0553 104.687 40.9794 104.41 40.8278C104.132 40.6718 103.913 40.4594 103.753 40.1908C103.593 39.9221 103.513 39.6166 103.513 39.2743C103.513 38.9276 103.593 38.6221 103.753 38.3578C103.913 38.0891 104.132 37.8789 104.41 37.7273C104.687 37.5756 105.003 37.4998 105.359 37.4998C105.718 37.4998 106.037 37.5756 106.314 37.7273C106.596 37.8789 106.815 38.0869 106.971 38.3513C107.131 38.6156 107.211 38.9233 107.211 39.2743C107.211 39.6166 107.131 39.9221 106.971 40.1908C106.815 40.4594 106.596 40.6718 106.314 40.8278C106.037 40.9794 105.718 41.0553 105.359 41.0553ZM105.359 40.3598C105.558 40.3598 105.736 40.3164 105.892 40.2298C106.048 40.1431 106.169 40.0174 106.256 39.8528C106.347 39.6881 106.392 39.4953 106.392 39.2743C106.392 39.0489 106.347 38.8561 106.256 38.6958C106.169 38.5311 106.048 38.4054 105.892 38.3188C105.736 38.2321 105.56 38.1888 105.365 38.1888C105.166 38.1888 104.988 38.2321 104.832 38.3188C104.68 38.4054 104.559 38.5311 104.468 38.6958C104.377 38.8561 104.332 39.0489 104.332 39.2743C104.332 39.4953 104.377 39.6881 104.468 39.8528C104.559 40.0174 104.68 40.1431 104.832 40.2298C104.988 40.3164 105.164 40.3598 105.359 40.3598ZM109.782 41.0553C109.487 41.0553 109.227 41.0011 109.002 40.8928C108.777 40.7801 108.601 40.6111 108.475 40.3858C108.35 40.1561 108.287 39.8679 108.287 39.5213V37.5388H109.099V39.4108C109.099 39.7228 109.169 39.9568 109.307 40.1128C109.45 40.2644 109.652 40.3403 109.912 40.3403C110.103 40.3403 110.267 40.3013 110.406 40.2233C110.549 40.1453 110.659 40.0283 110.737 39.8723C110.82 39.7163 110.861 39.5234 110.861 39.2938V37.5388H111.673V41.0098H110.9V40.0738L111.036 40.3598C110.919 40.5851 110.748 40.7584 110.523 40.8798C110.298 40.9968 110.051 41.0553 109.782 41.0553ZM113.062 41.0098V37.5388H113.836V38.4943L113.745 38.2148C113.849 37.9808 114.011 37.8031 114.232 37.6818C114.458 37.5604 114.737 37.4998 115.071 37.4998V38.2733C115.036 38.2646 115.004 38.2603 114.973 38.2603C114.943 38.2559 114.913 38.2538 114.882 38.2538C114.575 38.2538 114.33 38.3448 114.148 38.5268C113.966 38.7044 113.875 38.9709 113.875 39.3263V41.0098H113.062ZM120.162 41.0553C119.881 41.0553 119.623 40.9903 119.389 40.8603C119.159 40.7303 118.975 40.5353 118.836 40.2753C118.702 40.0109 118.635 39.6773 118.635 39.2743C118.635 38.8669 118.7 38.5333 118.83 38.2733C118.964 38.0133 119.146 37.8204 119.376 37.6948C119.605 37.5648 119.868 37.4998 120.162 37.4998C120.505 37.4998 120.806 37.5734 121.066 37.7208C121.33 37.8681 121.538 38.0739 121.69 38.3383C121.846 38.6026 121.924 38.9146 121.924 39.2743C121.924 39.6339 121.846 39.9481 121.69 40.2168C121.538 40.4811 121.33 40.6869 121.066 40.8343C120.806 40.9816 120.505 41.0553 120.162 41.0553ZM118.238 42.2708V37.5388H119.012V38.3578L118.986 39.2808L119.051 40.2038V42.2708H118.238ZM120.071 40.3598C120.266 40.3598 120.44 40.3164 120.591 40.2298C120.747 40.1431 120.871 40.0174 120.962 39.8528C121.053 39.6881 121.098 39.4953 121.098 39.2743C121.098 39.0489 121.053 38.8561 120.962 38.6958C120.871 38.5311 120.747 38.4054 120.591 38.3188C120.44 38.2321 120.266 38.1888 120.071 38.1888C119.876 38.1888 119.701 38.2321 119.545 38.3188C119.389 38.4054 119.265 38.5311 119.174 38.6958C119.083 38.8561 119.038 39.0489 119.038 39.2743C119.038 39.4953 119.083 39.6881 119.174 39.8528C119.265 40.0174 119.389 40.1431 119.545 40.2298C119.701 40.3164 119.876 40.3598 120.071 40.3598ZM123.019 41.0098V37.5388H123.793V38.4943L123.702 38.2148C123.806 37.9808 123.968 37.8031 124.189 37.6818C124.415 37.5604 124.694 37.4998 125.028 37.4998V38.2733C124.993 38.2646 124.961 38.2603 124.93 38.2603C124.9 38.2559 124.87 38.2538 124.839 38.2538C124.532 38.2538 124.287 38.3448 124.105 38.5268C123.923 38.7044 123.832 38.9709 123.832 39.3263V41.0098H123.019ZM126.042 41.0098V37.5388H126.854V41.0098H126.042ZM126.451 36.9668C126.3 36.9668 126.174 36.9191 126.074 36.8238C125.979 36.7284 125.931 36.6136 125.931 36.4793C125.931 36.3406 125.979 36.2258 126.074 36.1348C126.174 36.0394 126.3 35.9918 126.451 35.9918C126.603 35.9918 126.727 36.0373 126.822 36.1283C126.922 36.2149 126.971 36.3254 126.971 36.4598C126.971 36.6028 126.924 36.7241 126.828 36.8238C126.733 36.9191 126.607 36.9668 126.451 36.9668ZM129.806 41.0553C129.451 41.0553 129.134 40.9794 128.857 40.8278C128.58 40.6718 128.361 40.4594 128.2 40.1908C128.04 39.9221 127.96 39.6166 127.96 39.2743C127.96 38.9276 128.04 38.6221 128.2 38.3578C128.361 38.0891 128.58 37.8789 128.857 37.7273C129.134 37.5756 129.451 37.4998 129.806 37.4998C130.166 37.4998 130.484 37.5756 130.761 37.7273C131.043 37.8789 131.262 38.0869 131.418 38.3513C131.578 38.6156 131.658 38.9233 131.658 39.2743C131.658 39.6166 131.578 39.9221 131.418 40.1908C131.262 40.4594 131.043 40.6718 130.761 40.8278C130.484 40.9794 130.166 41.0553 129.806 41.0553ZM129.806 40.3598C130.005 40.3598 130.183 40.3164 130.339 40.2298C130.495 40.1431 130.616 40.0174 130.703 39.8528C130.794 39.6881 130.839 39.4953 130.839 39.2743C130.839 39.0489 130.794 38.8561 130.703 38.6958C130.616 38.5311 130.495 38.4054 130.339 38.3188C130.183 38.2321 130.007 38.1888 129.812 38.1888C129.613 38.1888 129.435 38.2321 129.279 38.3188C129.128 38.4054 129.006 38.5311 128.915 38.6958C128.824 38.8561 128.779 39.0489 128.779 39.2743C128.779 39.4953 128.824 39.6881 128.915 39.8528C129.006 40.0174 129.128 40.1431 129.279 40.2298C129.435 40.3164 129.611 40.3598 129.806 40.3598ZM132.76 41.0098V37.5388H133.534V38.4943L133.443 38.2148C133.547 37.9808 133.709 37.8031 133.93 37.6818C134.156 37.5604 134.435 37.4998 134.769 37.4998V38.2733C134.734 38.2646 134.702 38.2603 134.671 38.2603C134.641 38.2559 134.611 38.2538 134.58 38.2538C134.273 38.2538 134.028 38.3448 133.846 38.5268C133.664 38.7044 133.573 38.9709 133.573 39.3263V41.0098H132.76ZM135.783 41.0098V37.5388H136.596V41.0098H135.783ZM136.193 36.9668C136.041 36.9668 135.915 36.9191 135.816 36.8238C135.72 36.7284 135.673 36.6136 135.673 36.4793C135.673 36.3406 135.72 36.2258 135.816 36.1348C135.915 36.0394 136.041 35.9918 136.193 35.9918C136.344 35.9918 136.468 36.0373 136.563 36.1283C136.663 36.2149 136.713 36.3254 136.713 36.4598C136.713 36.6028 136.665 36.7241 136.57 36.8238C136.474 36.9191 136.349 36.9668 136.193 36.9668ZM139.294 41.0553C138.912 41.0553 138.618 40.9578 138.41 40.7628C138.202 40.5634 138.098 40.2709 138.098 39.8853V36.7718H138.91V39.8658C138.91 40.0304 138.951 40.1583 139.034 40.2493C139.12 40.3403 139.239 40.3858 139.391 40.3858C139.573 40.3858 139.725 40.3381 139.846 40.2428L140.074 40.8213C139.978 40.8993 139.861 40.9578 139.723 40.9968C139.584 41.0358 139.441 41.0553 139.294 41.0553ZM137.526 38.2148V37.5648H139.84V38.2148H137.526ZM141.289 42.3163C141.12 42.3163 140.951 42.2881 140.782 42.2318C140.613 42.1754 140.473 42.0974 140.36 41.9978L140.685 41.3998C140.767 41.4734 140.86 41.5319 140.964 41.5753C141.068 41.6186 141.175 41.6403 141.283 41.6403C141.43 41.6403 141.549 41.6034 141.64 41.5298C141.731 41.4561 141.816 41.3326 141.894 41.1593L142.095 40.7043L142.16 40.6068L143.473 37.5388H144.253L142.628 41.2893C142.52 41.5493 142.399 41.7551 142.264 41.9068C142.134 42.0584 141.987 42.1646 141.822 42.2253C141.662 42.2859 141.484 42.3163 141.289 42.3163ZM142.004 41.1333L140.438 37.5388H141.283L142.557 40.5353L142.004 41.1333Z" fill="white"/>
<defs>
<clipPath id="clip0_1287_2341">
<rect width="30" height="30" fill="white" transform="translate(9.99902 10.0098)"/>
</clipPath>
</defs>
</svg>
