<svg width="25" height="25" viewBox="0 0 25 25" fill="none" xmlns="http://www.w3.org/2000/svg">
<g clip-path="url(#clip0_1287_2319)">
<path fill-rule="evenodd" clip-rule="evenodd" d="M19.938 2.58984H4.38238C3.79301 2.58984 3.22778 2.82396 2.81103 3.24071C2.39429 3.65745 2.16016 4.22269 2.16016 4.81206V20.3677C2.16016 20.957 2.39429 21.5223 2.81103 21.939C3.22778 22.3557 3.79301 22.5899 4.38238 22.5899H19.938C20.5273 22.5899 21.0926 22.3557 21.5093 21.939C21.9261 21.5223 22.1602 20.957 22.1602 20.3677V4.81206C22.1602 4.22269 21.9261 3.65745 21.5093 3.24071C21.0926 2.82396 20.5273 2.58984 19.938 2.58984ZM8.27127 18.701C8.27127 18.8483 8.21274 18.9896 8.10855 19.0938C8.00437 19.198 7.86306 19.2565 7.71572 19.2565H6.04905C5.90171 19.2565 5.7604 19.198 5.65621 19.0938C5.55203 18.9896 5.49349 18.8483 5.49349 18.701V10.9232C5.49349 10.7759 5.55203 10.6346 5.65621 10.5303C5.7604 10.4261 5.90171 10.3676 6.04905 10.3676H7.71572C7.86306 10.3676 8.00437 10.4261 8.10855 10.5303C8.21274 10.6346 8.27127 10.7759 8.27127 10.9232V18.701ZM6.88238 9.2565C6.55275 9.2565 6.23051 9.15875 5.95643 8.97562C5.68235 8.79248 5.46873 8.53218 5.34258 8.22764C5.21644 7.9231 5.18343 7.58798 5.24774 7.26468C5.31205 6.94138 5.47078 6.64441 5.70387 6.41132C5.93696 6.17823 6.23393 6.0195 6.55723 5.95519C6.88053 5.89088 7.21564 5.92389 7.52019 6.05003C7.82473 6.17618 8.08503 6.3898 8.26817 6.66388C8.4513 6.93797 8.54905 7.2602 8.54905 7.58983C8.54905 8.03186 8.37345 8.45578 8.06089 8.76835C7.74833 9.08091 7.32441 9.2565 6.88238 9.2565ZM18.8269 18.701C18.8269 18.8483 18.7683 18.9896 18.6641 19.0938C18.56 19.198 18.4187 19.2565 18.2713 19.2565H16.6046C16.4573 19.2565 16.316 19.198 16.2118 19.0938C16.1076 18.9896 16.0491 18.8483 16.0491 18.701V14.5343C16.0491 14.0923 15.8735 13.6684 15.5609 13.3558C15.2484 13.0432 14.8245 12.8677 14.3824 12.8677C13.9404 12.8677 13.5165 13.0432 13.2039 13.3558C12.8914 13.6684 12.7158 14.0923 12.7158 14.5343V18.701C12.7158 18.8483 12.6572 18.9896 12.553 19.0938C12.4489 19.198 12.3075 19.2565 12.1602 19.2565H10.4935C10.3462 19.2565 10.2049 19.198 10.1007 19.0938C9.99647 18.9896 9.93794 18.8483 9.93794 18.701V10.9232C9.93794 10.7759 9.99647 10.6346 10.1007 10.5303C10.2049 10.4261 10.3462 10.3676 10.4935 10.3676H12.1602C12.3075 10.3676 12.4489 10.4261 12.553 10.5303C12.6572 10.6346 12.7158 10.7759 12.7158 10.9232V11.5899C13.0474 11.0852 13.51 10.68 14.0541 10.4178C14.5981 10.1555 15.2032 10.046 15.8046 10.101C16.6509 10.2053 17.4283 10.6198 17.9866 11.2643C18.5449 11.9088 18.8443 12.7374 18.8269 13.5899V18.701Z" fill="white" fill-opacity="0.7"/>
</g>
<defs>
<clipPath id="clip0_1287_2319">
<rect width="24" height="24" fill="white" transform="translate(0.160156 0.589844)"/>
</clipPath>
</defs>
</svg>
