<svg width="135" height="51" viewBox="0 0 135 51" fill="none" xmlns="http://www.w3.org/2000/svg">
<circle cx="25.0279" cy="25.9902" r="25" fill="#ED2228"/>
<g clip-path="url(#clip0_595_1488)">
<path d="M24.9999 24.5484C26.3398 24.5484 27.6495 24.1511 28.7635 23.4067C29.8775 22.6624 30.7458 21.6044 31.2585 20.3666C31.7712 19.1287 31.9054 17.7667 31.644 16.4526C31.3826 15.1385 30.7374 13.9315 29.79 12.9841C28.8426 12.0367 27.6356 11.3915 26.3215 11.1302C25.0075 10.8688 23.6454 11.0029 22.4076 11.5156C21.1698 12.0284 20.1118 12.8966 19.3674 14.0106C18.6231 15.1247 18.2258 16.4344 18.2258 17.7742C18.2258 19.5708 18.9395 21.2939 20.2099 22.5643C21.4803 23.8347 23.2033 24.5484 24.9999 24.5484ZM24.9999 11.9677C26.1484 11.9677 27.271 12.3083 28.2258 12.9463C29.1807 13.5843 29.9249 14.4912 30.3644 15.5521C30.8039 16.6131 30.9189 17.7806 30.6948 18.907C30.4708 20.0333 29.9178 21.0679 29.1057 21.88C28.2937 22.692 27.2591 23.245 26.1327 23.4691C25.0064 23.6931 23.8389 23.5781 22.7779 23.1386C21.7169 22.6992 20.8101 21.9549 20.1721 21.0001C19.534 20.0452 19.1935 18.9226 19.1935 17.7742C19.1935 16.2342 19.8052 14.7573 20.8942 13.6684C21.9831 12.5795 23.46 11.9677 24.9999 11.9677Z" fill="#F8F9FA"/>
<path d="M34.4354 32.5323C34.4364 32.8676 34.5151 33.1981 34.6654 33.4978C34.8157 33.7976 35.0334 34.0583 35.3016 34.2597C34.7269 34.3421 34.2011 34.6284 33.82 35.0663C33.4389 35.5043 33.228 36.0646 33.2258 36.6452V39.5484C33.2258 39.6767 33.2767 39.7998 33.3675 39.8905C33.4582 39.9813 33.5813 40.0323 33.7096 40.0323H39.5161C39.6444 40.0323 39.7675 39.9813 39.8582 39.8905C39.949 39.7998 39.9999 39.6767 39.9999 39.5484V36.6452C39.9977 36.0646 39.7868 35.5043 39.4057 35.0663C39.0246 34.6284 38.4988 34.3421 37.9241 34.2597C38.2183 34.0357 38.4504 33.7404 38.5986 33.4016C38.7467 33.0629 38.8059 32.692 38.7707 32.3239C38.7354 31.9559 38.6069 31.603 38.3971 31.2985C38.1873 30.9941 37.9034 30.7482 37.5721 30.5841C37.2407 30.4201 36.873 30.3433 36.5037 30.361C36.1345 30.3788 35.7758 30.4905 35.4617 30.6855C35.1477 30.8806 34.8886 31.1526 34.709 31.4757C34.5294 31.7989 34.4352 32.1625 34.4354 32.5323ZM39.0322 36.6452V39.0645H34.1935V36.6452C34.1935 36.2602 34.3464 35.8909 34.6187 35.6187C34.8909 35.3465 35.2601 35.1935 35.6451 35.1935H37.5806C37.9656 35.1935 38.3348 35.3465 38.607 35.6187C38.8793 35.8909 39.0322 36.2602 39.0322 36.6452ZM37.8225 32.5323C37.8225 32.7715 37.7516 33.0054 37.6187 33.2043C37.4857 33.4032 37.2968 33.5583 37.0758 33.6499C36.8547 33.7414 36.6115 33.7654 36.3769 33.7187C36.1422 33.672 35.9267 33.5568 35.7575 33.3876C35.5883 33.2185 35.4731 33.0029 35.4264 32.7683C35.3797 32.5336 35.4037 32.2904 35.4953 32.0693C35.5868 31.8483 35.7419 31.6594 35.9408 31.5264C36.1397 31.3935 36.3736 31.3226 36.6129 31.3226C36.9337 31.3226 37.2414 31.45 37.4682 31.6769C37.6951 31.9037 37.8225 32.2114 37.8225 32.5323Z" fill="#F8F9FA"/>
<path d="M21.6128 37.6129V40.5161C21.6128 40.6445 21.6638 40.7675 21.7546 40.8583C21.8453 40.949 21.9684 41 22.0967 41H27.9032C28.0315 41 28.1546 40.949 28.2453 40.8583C28.3361 40.7675 28.387 40.6445 28.387 40.5161V37.6129C28.3848 37.0324 28.1739 36.472 27.7928 36.0341C27.4117 35.5962 26.8859 35.3099 26.3112 35.2274C26.6757 34.9525 26.9445 34.57 27.0797 34.134C27.2149 33.698 27.2096 33.2306 27.0647 32.7977C26.9197 32.3648 26.6424 31.9885 26.2719 31.7218C25.9014 31.4552 25.4564 31.3117 24.9999 31.3117C24.5435 31.3117 24.0985 31.4552 23.728 31.7218C23.3575 31.9885 23.0802 32.3648 22.9352 32.7977C22.7903 33.2306 22.785 33.698 22.9202 34.134C23.0554 34.57 23.3242 34.9525 23.6887 35.2274C23.114 35.3099 22.5882 35.5962 22.2071 36.0341C21.826 36.472 21.6151 37.0324 21.6128 37.6129ZM24.9999 32.2903C25.2392 32.2903 25.4731 32.3613 25.672 32.4942C25.8709 32.6271 26.026 32.816 26.1175 33.0371C26.2091 33.2581 26.2331 33.5013 26.1864 33.736C26.1397 33.9707 26.0245 34.1862 25.8553 34.3554C25.6861 34.5246 25.4706 34.6398 25.2359 34.6864C25.0013 34.7331 24.7581 34.7092 24.537 34.6176C24.316 34.526 24.1271 34.371 23.9941 34.1721C23.8612 33.9731 23.7903 33.7393 23.7903 33.5C23.7903 33.1792 23.9177 32.8715 24.1446 32.6446C24.3714 32.4178 24.6791 32.2903 24.9999 32.2903ZM22.5806 37.6129C22.5806 37.2279 22.7335 36.8587 23.0058 36.5865C23.278 36.3142 23.6472 36.1613 24.0322 36.1613H25.9677C26.3527 36.1613 26.7219 36.3142 26.9941 36.5865C27.2664 36.8587 27.4193 37.2279 27.4193 37.6129V40.0323H22.5806V37.6129Z" fill="#F8F9FA"/>
<path d="M10.4838 40.0323H16.2903C16.4186 40.0323 16.5417 39.9813 16.6324 39.8905C16.7232 39.7998 16.7741 39.6767 16.7741 39.5484V36.6452C16.7719 36.0646 16.561 35.5043 16.1799 35.0663C15.7988 34.6284 15.273 34.3421 14.6983 34.2597C15.0628 33.9848 15.3316 33.6023 15.4668 33.1663C15.602 32.7303 15.5967 32.2628 15.4518 31.83C15.3068 31.3971 15.0295 31.0207 14.659 30.7541C14.2885 30.4874 13.8435 30.344 13.387 30.344C12.9306 30.344 12.4856 30.4874 12.1151 30.7541C11.7446 31.0207 11.4673 31.3971 11.3223 31.83C11.1774 32.2628 11.1721 32.7303 11.3073 33.1663C11.4425 33.6023 11.7113 33.9848 12.0758 34.2597C11.5011 34.3421 10.9753 34.6284 10.5942 35.0663C10.2131 35.5043 10.0022 36.0646 9.99995 36.6452V39.5484C9.99995 39.6767 10.0509 39.7998 10.1417 39.8905C10.2324 39.9813 10.3555 40.0323 10.4838 40.0323ZM13.387 31.3226C13.6263 31.3226 13.8602 31.3935 14.0591 31.5265C14.258 31.6594 14.4131 31.8483 14.5046 32.0693C14.5962 32.2904 14.6202 32.5336 14.5735 32.7683C14.5268 33.0029 14.4116 33.2185 14.2424 33.3876C14.0732 33.5568 13.8577 33.672 13.623 33.7187C13.3884 33.7654 13.1452 33.7414 12.9241 33.6499C12.7031 33.5583 12.5142 33.4033 12.3812 33.2043C12.2483 33.0054 12.1774 32.7715 12.1774 32.5323C12.1774 32.2114 12.3048 31.9037 12.5317 31.6769C12.7585 31.45 13.0662 31.3226 13.387 31.3226ZM10.9677 36.6452C10.9677 36.2602 11.1206 35.8909 11.3929 35.6187C11.6651 35.3465 12.0343 35.1936 12.4193 35.1936H14.3548C14.7398 35.1936 15.109 35.3465 15.3812 35.6187C15.6535 35.8909 15.8064 36.2602 15.8064 36.6452V39.0645H10.9677V36.6452Z" fill="#F8F9FA"/>
<path d="M21.6128 19.4677H23.3064V21.1613C23.3064 21.2896 23.3574 21.4127 23.4481 21.5034C23.5389 21.5942 23.6619 21.6452 23.7903 21.6452H26.2096C26.338 21.6452 26.461 21.5942 26.5518 21.5034C26.6425 21.4127 26.6935 21.2896 26.6935 21.1613V19.4677H28.387C28.5154 19.4677 28.6384 19.4168 28.7292 19.326C28.8199 19.2353 28.8709 19.1122 28.8709 18.9839V16.5645C28.8709 16.4362 28.8199 16.3131 28.7292 16.2224C28.6384 16.1316 28.5154 16.0806 28.387 16.0806H26.6935V14.3871C26.6935 14.2588 26.6425 14.1357 26.5518 14.045C26.461 13.9542 26.338 13.9032 26.2096 13.9032H23.7903C23.6619 13.9032 23.5389 13.9542 23.4481 14.045C23.3574 14.1357 23.3064 14.2588 23.3064 14.3871V16.0806H21.6128C21.4845 16.0806 21.3614 16.1316 21.2707 16.2224C21.18 16.3131 21.129 16.4362 21.129 16.5645V18.9839C21.129 19.1122 21.18 19.2353 21.2707 19.326C21.3614 19.4168 21.4845 19.4677 21.6128 19.4677ZM22.0967 17.0484H23.7903C23.9186 17.0484 24.0417 16.9974 24.1324 16.9067C24.2232 16.8159 24.2741 16.6928 24.2741 16.5645V14.871H25.7258V16.5645C25.7258 16.6928 25.7767 16.8159 25.8675 16.9067C25.9582 16.9974 26.0813 17.0484 26.2096 17.0484H27.9032V18.5H26.2096C26.0813 18.5 25.9582 18.551 25.8675 18.6417C25.7767 18.7325 25.7258 18.8555 25.7258 18.9839V20.6774H24.2741V18.9839C24.2741 18.8555 24.2232 18.7325 24.1324 18.6417C24.0417 18.551 23.9186 18.5 23.7903 18.5H22.0967V17.0484Z" fill="#F8F9FA"/>
<path d="M25.4838 26H24.5161V29.871H25.4838V26Z" fill="#F8F9FA"/>
<path d="M13.8709 26.7355L18.5016 23.4936L17.9499 22.7L13.1112 26.0871C13.0471 26.1316 12.9947 26.1909 12.9585 26.26C12.9223 26.3291 12.9033 26.4059 12.9032 26.4839V28.9032H13.8709V26.7355Z" fill="#F8F9FA"/>
<path d="M36.129 26.7355V28.9032H37.0967V26.4839C37.0966 26.4059 37.0776 26.3291 37.0414 26.26C37.0051 26.1909 36.9528 26.1316 36.8887 26.0871L32.0499 22.7L31.4983 23.4936L36.129 26.7355Z" fill="#F8F9FA"/>
</g>
<path d="M73.1245 34.4902H69.1915L62.6135 24.5312V34.4902H58.6805V18.3442H62.6135L69.1915 28.3492V18.3442H73.1245V34.4902ZM79.9084 21.4952V24.7612H85.1754V27.7972H79.9084V31.3392H85.8654V34.4902H75.9754V18.3442H85.8654V21.4952H79.9084ZM98.3087 34.4902L95.0197 29.5452L92.1217 34.4902H87.6597L92.8347 26.2792L87.5447 18.3442H92.1217L95.3647 23.2202L98.2167 18.3442H102.679L97.5497 26.4862L102.886 34.4902H98.3087ZM108.724 18.3442V28.0042C108.724 28.9702 108.962 29.7139 109.437 30.2352C109.912 30.7566 110.61 31.0172 111.53 31.0172C112.45 31.0172 113.155 30.7566 113.646 30.2352C114.137 29.7139 114.382 28.9702 114.382 28.0042V18.3442H118.315V27.9812C118.315 29.4226 118.008 30.6416 117.395 31.6382C116.782 32.6349 115.954 33.3862 114.911 33.8922C113.884 34.3982 112.734 34.6512 111.461 34.6512C110.188 34.6512 109.046 34.4059 108.034 33.9152C107.037 33.4092 106.248 32.6579 105.665 31.6612C105.082 30.6492 104.791 29.4226 104.791 27.9812V18.3442H108.724ZM126.919 34.6512C125.738 34.6512 124.68 34.4596 123.745 34.0762C122.81 33.6929 122.058 33.1256 121.491 32.3742C120.939 31.6229 120.648 30.7182 120.617 29.6602H124.803C124.864 30.2582 125.071 30.7182 125.424 31.0402C125.777 31.3469 126.237 31.5002 126.804 31.5002C127.387 31.5002 127.847 31.3699 128.184 31.1092C128.521 30.8332 128.69 30.4576 128.69 29.9822C128.69 29.5836 128.552 29.2539 128.276 28.9932C128.015 28.7326 127.686 28.5179 127.287 28.3492C126.904 28.1806 126.352 27.9889 125.631 27.7742C124.588 27.4522 123.737 27.1302 123.078 26.8082C122.419 26.4862 121.851 26.0109 121.376 25.3822C120.901 24.7536 120.663 23.9332 120.663 22.9212C120.663 21.4186 121.207 20.2456 122.296 19.4022C123.385 18.5436 124.803 18.1142 126.551 18.1142C128.33 18.1142 129.763 18.5436 130.852 19.4022C131.941 20.2456 132.523 21.4262 132.6 22.9442H128.345C128.314 22.4229 128.123 22.0166 127.77 21.7252C127.417 21.4186 126.965 21.2652 126.413 21.2652C125.938 21.2652 125.554 21.3956 125.263 21.6562C124.972 21.9016 124.826 22.2619 124.826 22.7372C124.826 23.2586 125.071 23.6649 125.562 23.9562C126.053 24.2476 126.819 24.5619 127.862 24.8992C128.905 25.2519 129.748 25.5892 130.392 25.9112C131.051 26.2332 131.619 26.7009 132.094 27.3142C132.569 27.9276 132.807 28.7172 132.807 29.6832C132.807 30.6032 132.569 31.4389 132.094 32.1902C131.634 32.9416 130.959 33.5396 130.07 33.9842C129.181 34.4289 128.13 34.6512 126.919 34.6512Z" fill="black"/>
<defs>
<clipPath id="clip0_595_1488">
<rect width="30" height="30" fill="white" transform="translate(9.99995 11)"/>
</clipPath>
</defs>
</svg>
