<svg width="55" height="55" viewBox="0 0 55 55" fill="none" xmlns="http://www.w3.org/2000/svg">
<circle cx="27.5" cy="27.5" r="27.5" fill="#ED2228"/>
<g clip-path="url(#clip0_450_298)">
<path d="M27.4702 25.914C28.944 25.914 30.3847 25.4769 31.6101 24.6582C32.8355 23.8394 33.7906 22.6756 34.3546 21.314C34.9186 19.9524 35.0661 18.4541 34.7786 17.0086C34.4911 15.5632 33.7814 14.2354 32.7393 13.1933C31.6971 12.1511 30.3694 11.4414 28.9239 11.1539C27.4784 10.8664 25.9802 11.014 24.6186 11.578C23.257 12.142 22.0932 13.0971 21.2744 14.3225C20.4556 15.5479 20.0186 16.9886 20.0186 18.4624C20.0186 20.4387 20.8036 22.334 22.2011 23.7314C23.5985 25.1289 25.4939 25.914 27.4702 25.914ZM27.4702 12.0753C28.7334 12.0753 29.9683 12.4499 31.0187 13.1517C32.069 13.8535 32.8877 14.851 33.3711 16.0181C33.8545 17.1852 33.981 18.4694 33.7345 19.7084C33.4881 20.9474 32.8798 22.0855 31.9865 22.9787C31.0933 23.872 29.9552 24.4803 28.7162 24.7267C27.4773 24.9732 26.193 24.8467 25.0259 24.3633C23.8588 23.8798 22.8613 23.0612 22.1595 22.0108C21.4577 20.9605 21.0831 19.7256 21.0831 18.4624C21.0831 16.7684 21.756 15.1438 22.9538 13.946C24.1516 12.7482 25.7762 12.0753 27.4702 12.0753Z" fill="#F8F9FA"/>
<path d="M37.8492 34.6958C37.8502 35.0646 37.9368 35.4282 38.1021 35.7579C38.2674 36.0876 38.507 36.3745 38.8019 36.5959C38.1698 36.6866 37.5914 37.0016 37.1722 37.4833C36.753 37.965 36.521 38.5814 36.5186 39.22V42.4135C36.5186 42.5547 36.5746 42.6901 36.6744 42.7899C36.7743 42.8897 36.9096 42.9458 37.0508 42.9458H43.4379C43.5791 42.9458 43.7145 42.8897 43.8143 42.7899C43.9141 42.6901 43.9702 42.5547 43.9702 42.4135V39.22C43.9677 38.5814 43.7357 37.965 43.3165 37.4833C42.8973 37.0016 42.3189 36.6866 41.6868 36.5959C42.0103 36.3496 42.2657 36.0247 42.4286 35.6521C42.5916 35.2795 42.6568 34.8715 42.618 34.4666C42.5792 34.0618 42.4378 33.6736 42.207 33.3387C41.9763 33.0038 41.6639 32.7333 41.2995 32.5528C40.935 32.3724 40.5306 32.2879 40.1243 32.3074C39.7181 32.327 39.3236 32.4498 38.9781 32.6644C38.6327 32.879 38.3477 33.1781 38.1501 33.5336C37.9526 33.8891 37.849 34.2891 37.8492 34.6958ZM42.9057 39.22V41.8813H37.5831V39.22C37.5831 38.7965 37.7513 38.3903 38.0508 38.0909C38.3502 37.7914 38.7564 37.6232 39.1798 37.6232H41.3089C41.7324 37.6232 42.1385 37.7914 42.438 38.0909C42.7374 38.3903 42.9057 38.7965 42.9057 39.22ZM41.575 34.6958C41.575 34.959 41.497 35.2162 41.3508 35.435C41.2045 35.6539 40.9967 35.8244 40.7536 35.9251C40.5104 36.0258 40.2429 36.0522 39.9848 36.0009C39.7266 35.9495 39.4895 35.8228 39.3035 35.6367C39.1174 35.4506 38.9906 35.2135 38.9393 34.9554C38.8879 34.6973 38.9143 34.4297 39.015 34.1866C39.1157 33.9434 39.2863 33.7356 39.5051 33.5894C39.7239 33.4432 39.9812 33.3651 40.2444 33.3651C40.5973 33.3651 40.9357 33.5053 41.1853 33.7549C41.4348 34.0044 41.575 34.3429 41.575 34.6958Z" fill="#F8F9FA"/>
<path d="M23.7441 40.2848V43.4784C23.7441 43.6195 23.8002 43.7549 23.9 43.8547C23.9999 43.9546 24.1352 44.0106 24.2764 44.0106H30.6635C30.8047 44.0106 30.94 43.9546 31.0399 43.8547C31.1397 43.7549 31.1958 43.6195 31.1958 43.4784V40.2848C31.1933 39.6463 30.9613 39.0299 30.5421 38.5481C30.1229 38.0664 29.5445 37.7515 28.9124 37.6608C29.3132 37.3584 29.6089 36.9377 29.7576 36.4581C29.9064 35.9785 29.9006 35.4642 29.7411 34.9881C29.5817 34.512 29.2766 34.098 28.8691 33.8046C28.4615 33.5113 27.9721 33.3535 27.4699 33.3535C26.9678 33.3535 26.4784 33.5113 26.0708 33.8046C25.6633 34.098 25.3582 34.512 25.1988 34.9881C25.0393 35.4642 25.0335 35.9785 25.1822 36.4581C25.331 36.9377 25.6267 37.3584 26.0275 37.6608C25.3954 37.7515 24.817 38.0664 24.3978 38.5481C23.9786 39.0299 23.7466 39.6463 23.7441 40.2848ZM27.4699 34.43C27.7331 34.43 27.9904 34.508 28.2092 34.6543C28.428 34.8005 28.5986 35.0083 28.6993 35.2514C28.8 35.4946 28.8264 35.7621 28.775 36.0202C28.7237 36.2784 28.597 36.5155 28.4109 36.7016C28.2248 36.8876 27.9877 37.0144 27.7295 37.0657C27.4714 37.1171 27.2039 37.0907 26.9607 36.99C26.7176 36.8893 26.5098 36.7187 26.3636 36.4999C26.2173 36.2811 26.1393 36.0238 26.1393 35.7606C26.1393 35.4077 26.2795 35.0693 26.529 34.8197C26.7786 34.5702 27.117 34.43 27.4699 34.43ZM24.8087 40.2848C24.8087 39.8613 24.9769 39.4552 25.2763 39.1557C25.5758 38.8563 25.9819 38.6881 26.4054 38.6881H28.5345C28.958 38.6881 29.3641 38.8563 29.6636 39.1557C29.963 39.4552 30.1312 39.8613 30.1312 40.2848V42.9461H24.8087V40.2848Z" fill="#F8F9FA"/>
<path d="M11.502 42.9462H17.8891C18.0302 42.9462 18.1656 42.8901 18.2654 42.7903C18.3653 42.6905 18.4213 42.5551 18.4213 42.4139V39.2204C18.4189 38.5818 18.1869 37.9654 17.7677 37.4837C17.3485 37.002 16.7701 36.687 16.138 36.5963C16.5388 36.294 16.8345 35.8732 16.9832 35.3936C17.132 34.914 17.1262 34.3998 16.9667 33.9236C16.8073 33.4475 16.5022 33.0335 16.0947 32.7402C15.6871 32.4469 15.1977 32.2891 14.6955 32.2891C14.1934 32.2891 13.704 32.4469 13.2964 32.7402C12.8889 33.0335 12.5838 33.4475 12.4243 33.9236C12.2649 34.3998 12.2591 34.914 12.4078 35.3936C12.5566 35.8732 12.8522 36.294 13.2531 36.5963C12.621 36.687 12.0426 37.002 11.6234 37.4837C11.2042 37.9654 10.9722 38.5818 10.9697 39.2204V42.4139C10.9697 42.5551 11.0258 42.6905 11.1256 42.7903C11.2254 42.8901 11.3608 42.9462 11.502 42.9462ZM14.6955 33.3655C14.9587 33.3655 15.216 33.4436 15.4348 33.5898C15.6536 33.736 15.8242 33.9438 15.9249 34.187C16.0256 34.4301 16.052 34.6977 16.0006 34.9558C15.9493 35.2139 15.8225 35.451 15.6364 35.6371C15.4503 35.8232 15.2132 35.9499 14.9551 36.0013C14.697 36.0526 14.4295 36.0263 14.1863 35.9255C13.9432 35.8248 13.7354 35.6543 13.5891 35.4355C13.4429 35.2166 13.3649 34.9594 13.3649 34.6962C13.3649 34.3433 13.5051 34.0048 13.7546 33.7553C14.0042 33.5057 14.3426 33.3655 14.6955 33.3655ZM12.0342 39.2204C12.0342 38.7969 12.2025 38.3907 12.5019 38.0913C12.8014 37.7918 13.2075 37.6236 13.631 37.6236H15.76C16.1835 37.6236 16.5897 37.7918 16.8891 38.0913C17.1886 38.3907 17.3568 38.7969 17.3568 39.2204V41.8817H12.0342V39.2204Z" fill="#F8F9FA"/>
<path d="M23.7442 20.3251H25.6071V22.188C25.6071 22.3291 25.6632 22.4645 25.763 22.5643C25.8628 22.6642 25.9982 22.7202 26.1393 22.7202H28.8006C28.9418 22.7202 29.0772 22.6642 29.177 22.5643C29.2768 22.4645 29.3329 22.3291 29.3329 22.188V20.3251H31.1958C31.337 20.3251 31.4723 20.269 31.5722 20.1692C31.672 20.0694 31.728 19.934 31.728 19.7928V17.1315C31.728 16.9904 31.672 16.855 31.5722 16.7552C31.4723 16.6553 31.337 16.5993 31.1958 16.5993H29.3329V14.7364C29.3329 14.5952 29.2768 14.4598 29.177 14.36C29.0772 14.2602 28.9418 14.2041 28.8006 14.2041H26.1393C25.9982 14.2041 25.8628 14.2602 25.763 14.36C25.6632 14.4598 25.6071 14.5952 25.6071 14.7364V16.5993H23.7442C23.603 16.5993 23.4676 16.6553 23.3678 16.7552C23.268 16.855 23.2119 16.9904 23.2119 17.1315V19.7928C23.2119 19.934 23.268 20.0694 23.3678 20.1692C23.4676 20.269 23.603 20.3251 23.7442 20.3251ZM24.2764 17.6638H26.1393C26.2805 17.6638 26.4159 17.6077 26.5157 17.5079C26.6155 17.4081 26.6716 17.2727 26.6716 17.1315V15.2686H28.2684V17.1315C28.2684 17.2727 28.3244 17.4081 28.4243 17.5079C28.5241 17.6077 28.6595 17.6638 28.8006 17.6638H30.6635V19.2606H28.8006C28.6595 19.2606 28.5241 19.3166 28.4243 19.4164C28.3244 19.5163 28.2684 19.6516 28.2684 19.7928V21.6557H26.6716V19.7928C26.6716 19.6516 26.6155 19.5163 26.5157 19.4164C26.4159 19.3166 26.2805 19.2606 26.1393 19.2606H24.2764V17.6638Z" fill="#F8F9FA"/>
<path d="M28.002 27.5107H26.9375V31.7688H28.002V27.5107Z" fill="#F8F9FA"/>
<path d="M15.2276 28.3199L20.3213 24.7538L19.7145 23.8809L14.392 27.6067C14.3215 27.6556 14.2638 27.7208 14.224 27.7968C14.1841 27.8728 14.1632 27.9573 14.1631 28.0431V30.7044H15.2276V28.3199Z" fill="#F8F9FA"/>
<path d="M39.7119 28.3199V30.7044H40.7764V28.0431C40.7762 27.9573 40.7554 27.8728 40.7155 27.7968C40.6757 27.7208 40.618 27.6556 40.5475 27.6067L35.2249 23.8809L34.6182 24.7538L39.7119 28.3199Z" fill="#F8F9FA"/>
</g>
<defs>
<clipPath id="clip0_450_298">
<rect width="33" height="33" fill="white" transform="translate(10.9697 11.0107)"/>
</clipPath>
</defs>
</svg>
