<svg width="25" height="25" viewBox="0 0 25 25" fill="none" xmlns="http://www.w3.org/2000/svg">
<g clip-path="url(#clip0_1287_2313)">
<path fill-rule="evenodd" clip-rule="evenodd" d="M4.25114 19.0898H21.2093C21.4855 19.0898 21.7505 18.98 21.9458 18.7847C22.1411 18.5894 22.2509 18.3244 22.2509 18.0482V7.1315C22.2509 6.85524 22.1411 6.59029 21.9458 6.39494C21.7505 6.19959 21.4855 6.08984 21.2093 6.08984H4.25114C3.97487 6.08984 3.70992 6.19959 3.51457 6.39494C3.31922 6.59029 3.20947 6.85524 3.20947 7.1315V18.0482C3.20947 18.3244 3.31922 18.5894 3.51457 18.7847C3.70992 18.98 3.97487 19.0898 4.25114 19.0898ZM20.2509 17.0898H5.25093V8.08984H20.2509V17.0898Z" fill="white" fill-opacity="0.7"/>
<path d="M12.7452 14.5814C12.7889 14.587 12.833 14.5898 12.8774 14.5898C13.094 14.5899 13.3053 14.5222 13.4815 14.396L17.1274 11.7919C17.3474 11.6295 17.4947 11.3871 17.5375 11.1171C17.5804 10.8471 17.5154 10.571 17.3565 10.3485C17.1976 10.126 16.9576 9.97485 16.6883 9.92771C16.419 9.88057 16.1419 9.94121 15.9169 10.0966L12.8764 12.2684L9.83471 10.0957C9.60953 9.94667 9.3353 9.89083 9.06979 9.93999C8.80427 9.98913 8.5682 10.1394 8.41128 10.3592C8.25438 10.5789 8.1889 10.851 8.22863 11.1181C8.26836 11.3852 8.41021 11.6264 8.62429 11.791L12.2701 14.3952C12.4154 14.4995 12.5791 14.5607 12.7452 14.5814Z" fill="white" fill-opacity="0.7"/>
</g>
<defs>
<clipPath id="clip0_1287_2313">
<rect width="24" height="24" fill="white" transform="translate(0.72998 0.589844)"/>
</clipPath>
</defs>
</svg>
