<svg width="25" height="25" viewBox="0 0 25 25" fill="none" xmlns="http://www.w3.org/2000/svg">
<g clip-path="url(#clip0_1287_2296)">
<path fill-rule="evenodd" clip-rule="evenodd" d="M9.45384 4.35498C8.79022 4.35498 8.15378 4.6186 7.68453 5.08785C7.21528 5.5571 6.95166 6.19354 6.95166 6.85716V18.3228C6.95166 18.9864 7.21528 19.6229 7.68453 20.0921C8.15378 20.5614 8.79022 20.825 9.45384 20.825H16.0057C16.6693 20.825 17.3057 20.5614 17.775 20.0921C18.2442 19.6229 18.5079 18.9864 18.5079 18.3228V6.85716C18.5079 6.19354 18.2442 5.5571 17.775 5.08785C17.3057 4.6186 16.6693 4.35498 16.0057 4.35498H9.45384ZM8.90674 6.31006C9.05184 6.16496 9.24864 6.08344 9.45384 6.08344H16.0057C16.2109 6.08344 16.4077 6.16496 16.5528 6.31006C16.6979 6.45516 16.7794 6.65196 16.7794 6.85716V16.6396H8.68012V6.85716C8.68012 6.65196 8.76164 6.45516 8.90674 6.31006ZM8.68144 18.3681H16.7781C16.767 18.5568 16.6872 18.7355 16.5528 18.8699C16.4077 19.015 16.2109 19.0965 16.0057 19.0965H9.45384C9.24864 19.0965 9.05184 19.015 8.90674 18.8699C8.77234 18.7355 8.69249 18.5568 8.68144 18.3681Z" fill="white" fill-opacity="0.7"/>
</g>
<defs>
<clipPath id="clip0_1287_2296">
<rect width="24" height="24" fill="white" transform="translate(0.72998 0.589844)"/>
</clipPath>
</defs>
</svg>
