<svg width="31" height="19" viewBox="0 0 31 19" fill="none" xmlns="http://www.w3.org/2000/svg">
<path fill-rule="evenodd" clip-rule="evenodd" d="M10.8843 10.6798C10.8843 12.082 9.69837 13.2186 8.23551 13.2186C6.77266 13.2186 5.58678 12.082 5.58678 10.6798C5.58678 9.27775 6.77266 8.14117 8.23551 8.14117C9.69814 8.14015 10.8846 9.27579 10.8856 10.6776V10.6798H10.8843ZM23.1693 8.14117C21.7065 8.14117 20.5206 9.27775 20.5206 10.6798C20.5206 12.082 21.7065 13.2186 23.1693 13.2186C24.6322 13.2186 25.8181 12.082 25.8181 10.6798C25.8181 9.27775 24.6322 8.14117 23.1693 8.14117ZM23.1693 15.5227C20.3788 15.5227 18.1166 13.3545 18.1166 10.6798C18.1166 8.00523 20.3788 5.83702 23.1693 5.83702C25.9599 5.83702 28.222 8.00523 28.222 10.6798C28.222 13.3545 25.9599 15.5227 23.1693 15.5227ZM15.7048 10.5402C15.7048 7.35347 13.285 4.61895 10.0969 3.44861C13.6857 2.01574 17.7229 2.01574 21.3117 3.44861C18.1227 4.6194 15.7048 7.35347 15.7048 10.5402ZM8.23691 15.5227C5.44638 15.5227 3.1842 13.3545 3.1842 10.6798C3.1842 8.00523 5.44638 5.83702 8.23691 5.83702C11.0274 5.83702 13.2896 8.00523 13.2896 10.6798C13.2896 13.3545 11.0274 15.5227 8.23691 15.5227ZM28.2034 5.391L30.6465 2.84337H25.2303C19.4866 -0.903111 11.9369 -0.903111 6.19312 2.84337H0.763018L3.20607 5.391C0.152952 8.0476 -0.0751598 12.5734 2.69657 15.4997C5.4683 18.4263 10.1903 18.6447 13.2434 15.9881C13.2661 15.9684 13.2886 15.9485 13.311 15.9286L15.7048 18.4263L18.0971 15.9317C19.4754 17.1592 21.2879 17.8404 23.1693 17.8379C27.2928 17.8379 30.6386 14.6338 30.6386 10.6816C30.6417 8.66787 29.7573 6.74648 28.2034 5.391Z" fill="black"/>
</svg>
