<svg width="25" height="25" viewBox="0 0 25 25" fill="none" xmlns="http://www.w3.org/2000/svg">
<g clip-path="url(#clip0_1287_2329)">
<path d="M22.73 0.589844H2.72998C1.62541 0.589844 0.72998 1.48527 0.72998 2.58984V22.5898C0.72998 23.6944 1.62541 24.5898 2.72998 24.5898H22.73C23.8346 24.5898 24.73 23.6944 24.73 22.5898V2.58984C24.73 1.48527 23.8346 0.589844 22.73 0.589844Z" fill="#E00004"/>
<path fill-rule="evenodd" clip-rule="evenodd" d="M7.65291 10.8018C7.38996 10.734 7.11529 10.725 6.84847 10.7755C7.62263 8.26232 9.96293 6.43585 12.7303 6.43585C15.4977 6.43585 17.838 8.26232 18.6122 10.7755C18.3454 10.725 18.0707 10.734 17.8077 10.8018C17.5448 10.8696 17.3 10.9946 17.0909 11.1678C16.8818 11.3411 16.7135 11.5584 16.598 11.8041C16.4825 12.0499 16.4226 12.3181 16.4226 12.5897V15.6666C16.4226 15.8298 16.4875 15.9863 16.6029 16.1017C16.7183 16.2171 16.8748 16.282 17.038 16.282H17.3457C18.0802 16.282 18.7845 15.9902 19.3039 15.4709C19.8232 14.9515 20.115 14.2472 20.115 13.5127V12.5897C20.115 8.51155 16.8085 5.20508 12.7303 5.20508C8.65216 5.20508 5.3457 8.51155 5.3457 12.5897C5.3457 16.6678 8.65216 19.9743 12.7303 19.9743C13.1102 19.9742 13.4808 19.857 13.7916 19.6386C14.1023 19.4202 14.3382 19.1113 14.467 18.7539C14.5957 18.3966 14.6111 18.0082 14.5111 17.6418C14.411 17.2753 14.2003 16.9487 13.9078 16.7064C13.6153 16.4641 13.2552 16.3179 12.8765 16.2878C12.4979 16.2577 12.1191 16.3451 11.792 16.5381C11.4648 16.7311 11.2052 17.0203 11.0485 17.3663C10.8917 17.7124 10.8455 18.0983 10.9162 18.4715C9.66676 18.0851 8.57261 17.3114 7.79186 16.2623C7.89903 16.2756 8.00693 16.2822 8.11493 16.282H8.42263C8.58584 16.282 8.74236 16.2171 8.85777 16.1017C8.97318 15.9863 9.03801 15.8298 9.03801 15.6666V12.5897C9.03804 12.3181 8.97817 12.0499 8.86265 11.8041C8.74714 11.5584 8.57883 11.3411 8.36972 11.1678C8.16062 10.9946 7.91586 10.8696 7.65291 10.8018ZM12.2952 17.693C12.4106 17.5776 12.5671 17.5127 12.7303 17.5127C12.8935 17.5127 13.0501 17.5776 13.1655 17.693C13.2809 17.8084 13.3457 17.9649 13.3457 18.1281C13.3457 18.2913 13.2809 18.4478 13.1655 18.5633C13.0501 18.6787 12.8935 18.7435 12.7303 18.7435C12.5671 18.7435 12.4106 18.6787 12.2952 18.5633C12.1798 18.4478 12.115 18.2913 12.115 18.1281C12.115 17.9649 12.1798 17.8084 12.2952 17.693ZM18.8842 12.5897V13.5127C18.8843 13.8674 18.7618 14.2112 18.5375 14.4859C18.3132 14.7607 18.0009 14.9495 17.6534 15.0204V12.5897C17.6534 12.4264 17.7182 12.2699 17.8337 12.1545C17.9491 12.0391 18.1056 11.9743 18.2688 11.9743C18.432 11.9743 18.5885 12.0391 18.7039 12.1545C18.8193 12.2699 18.8842 12.4264 18.8842 12.5897ZM7.80724 12.5897V15.0204C7.45974 14.9495 7.14743 14.7607 6.92315 14.4859C6.69887 14.2112 6.5764 13.8674 6.57647 13.5127V12.5897C6.57647 12.4264 6.64131 12.2699 6.75671 12.1545C6.87212 12.0391 7.02865 11.9743 7.19186 11.9743C7.35507 11.9743 7.51159 12.0391 7.627 12.1545C7.74241 12.2699 7.80724 12.4264 7.80724 12.5897ZM10.4666 9.49962C10.6263 9.52946 10.7914 9.49493 10.9257 9.40356C11.9048 8.72848 13.5553 8.72848 14.5343 9.40356C14.6687 9.49493 14.8337 9.52946 14.9934 9.49962C15.1532 9.46977 15.2946 9.37797 15.3869 9.24425C15.4792 9.11053 15.5148 8.94573 15.4861 8.78581C15.4573 8.6259 15.3665 8.48384 15.2334 8.39064C13.8334 7.42448 11.6266 7.42448 10.2266 8.39064C10.0935 8.48384 10.0027 8.6259 9.97396 8.78581C9.94521 8.94573 9.98087 9.11053 10.0732 9.24425C10.1655 9.37797 10.3069 9.46977 10.4666 9.49962Z" fill="white"/>
<mask id="mask0_1287_2329" style="mask-type:luminance" maskUnits="userSpaceOnUse" x="4" y="4" width="17" height="17">
<path d="M20.3457 4.20508H4.3457V20.2051H20.3457V4.20508Z" fill="white"/>
<path fill-rule="evenodd" clip-rule="evenodd" d="M7.65291 10.8018C7.38996 10.734 7.11529 10.725 6.84847 10.7755C7.62263 8.26232 9.96293 6.43585 12.7303 6.43585C15.4977 6.43585 17.838 8.26232 18.6122 10.7755C18.3454 10.725 18.0707 10.734 17.8077 10.8018C17.5448 10.8696 17.3 10.9946 17.0909 11.1678C16.8818 11.3411 16.7135 11.5584 16.598 11.8041C16.4825 12.0499 16.4226 12.3181 16.4226 12.5897V15.6666C16.4226 15.8298 16.4875 15.9863 16.6029 16.1017C16.7183 16.2171 16.8748 16.282 17.038 16.282H17.3457C18.0802 16.282 18.7845 15.9902 19.3039 15.4709C19.8232 14.9515 20.115 14.2472 20.115 13.5127V12.5897C20.115 8.51155 16.8085 5.20508 12.7303 5.20508C8.65216 5.20508 5.3457 8.51155 5.3457 12.5897C5.3457 16.6678 8.65216 19.9743 12.7303 19.9743C13.1102 19.9742 13.4808 19.857 13.7916 19.6386C14.1023 19.4202 14.3382 19.1113 14.467 18.7539C14.5957 18.3966 14.6111 18.0082 14.5111 17.6418C14.411 17.2753 14.2003 16.9487 13.9078 16.7064C13.6153 16.4641 13.2552 16.3179 12.8765 16.2878C12.4979 16.2577 12.1191 16.3451 11.792 16.5381C11.4648 16.7311 11.2052 17.0203 11.0485 17.3663C10.8917 17.7124 10.8455 18.0983 10.9162 18.4715C9.66676 18.0851 8.57261 17.3114 7.79186 16.2623C7.89903 16.2756 8.00693 16.2822 8.11493 16.282H8.42263C8.58584 16.282 8.74236 16.2171 8.85777 16.1017C8.97318 15.9863 9.03801 15.8298 9.03801 15.6666V12.5897C9.03804 12.3181 8.97817 12.0499 8.86265 11.8041C8.74714 11.5584 8.57883 11.3411 8.36972 11.1678C8.16062 10.9946 7.91586 10.8696 7.65291 10.8018ZM12.2952 17.693C12.4106 17.5776 12.5671 17.5127 12.7303 17.5127C12.8935 17.5127 13.0501 17.5776 13.1655 17.693C13.2809 17.8084 13.3457 17.9649 13.3457 18.1281C13.3457 18.2913 13.2809 18.4478 13.1655 18.5633C13.0501 18.6787 12.8935 18.7435 12.7303 18.7435C12.5671 18.7435 12.4106 18.6787 12.2952 18.5633C12.1798 18.4478 12.115 18.2913 12.115 18.1281C12.115 17.9649 12.1798 17.8084 12.2952 17.693ZM18.8842 12.5897V13.5127C18.8843 13.8674 18.7618 14.2112 18.5375 14.4859C18.3132 14.7607 18.0009 14.9495 17.6534 15.0204V12.5897C17.6534 12.4264 17.7182 12.2699 17.8337 12.1545C17.9491 12.0391 18.1056 11.9743 18.2688 11.9743C18.432 11.9743 18.5885 12.0391 18.7039 12.1545C18.8193 12.2699 18.8842 12.4264 18.8842 12.5897ZM7.80724 12.5897V15.0204C7.45974 14.9495 7.14743 14.7607 6.92315 14.4859C6.69887 14.2112 6.5764 13.8674 6.57647 13.5127V12.5897C6.57647 12.4264 6.64131 12.2699 6.75671 12.1545C6.87212 12.0391 7.02865 11.9743 7.19186 11.9743C7.35507 11.9743 7.51159 12.0391 7.627 12.1545C7.74241 12.2699 7.80724 12.4264 7.80724 12.5897ZM10.4666 9.49962C10.6263 9.52946 10.7914 9.49493 10.9257 9.40356C11.9048 8.72848 13.5553 8.72848 14.5343 9.40356C14.6687 9.49493 14.8337 9.52946 14.9934 9.49962C15.1532 9.46977 15.2946 9.37797 15.3869 9.24425C15.4792 9.11053 15.5148 8.94573 15.4861 8.78581C15.4573 8.6259 15.3665 8.48384 15.2334 8.39064C13.8334 7.42448 11.6266 7.42448 10.2266 8.39064C10.0935 8.48384 10.0027 8.6259 9.97396 8.78581C9.94521 8.94573 9.98087 9.11053 10.0732 9.24425C10.1655 9.37797 10.3069 9.46977 10.4666 9.49962Z" fill="white"/>
</mask>
<g mask="url(#mask0_1287_2329)">
<path d="M6.84838 10.7755L6.75281 10.746L6.70397 10.9046L6.86698 10.8738L6.84838 10.7755ZM18.6121 10.7755L18.5935 10.8738L18.7565 10.9046L18.7077 10.746L18.6121 10.7755ZM10.9161 18.4715L10.8865 18.5669L11.0452 18.6161L11.0143 18.4529L10.9161 18.4715ZM7.79177 16.2622L7.80413 16.163L7.57171 16.1341L7.71154 16.3219L7.79177 16.2622ZM17.6533 15.0204H17.5533V15.1428L17.6733 15.1184L17.6533 15.0204ZM7.80715 15.0204L7.78715 15.1184L7.90715 15.1428V15.0204H7.80715ZM6.86698 10.8738C7.11935 10.826 7.37914 10.8345 7.62785 10.8986L7.6778 10.7049C7.4006 10.6335 7.11105 10.624 6.82978 10.6772L6.86698 10.8738ZM12.7302 6.33575C9.91772 6.33575 7.53952 8.19202 6.75281 10.746L6.94395 10.8049C7.70555 8.33241 10.008 6.53575 12.7302 6.53575V6.33575ZM18.7077 10.746C17.9209 8.19202 15.5427 6.33575 12.7302 6.33575V6.53575C15.4525 6.53575 17.7549 8.33241 18.5165 10.8049L18.7077 10.746ZM17.8326 10.8986C18.0813 10.8345 18.3411 10.826 18.5935 10.8738L18.6307 10.6772C18.3494 10.624 18.0599 10.6335 17.7827 10.7049L17.8326 10.8986ZM17.1546 11.2448C17.3524 11.0809 17.5839 10.9627 17.8326 10.8986L17.7827 10.7049C17.5055 10.7764 17.2475 10.9082 17.027 11.0908L17.1546 11.2448ZM16.6884 11.8467C16.7977 11.6142 16.9569 11.4086 17.1546 11.2448L17.027 11.0908C16.8066 11.2735 16.6292 11.5024 16.5074 11.7615L16.6884 11.8467ZM16.5225 12.5897C16.5225 12.3328 16.5791 12.0791 16.6884 11.8467L16.5074 11.7615C16.3856 12.0205 16.3225 12.3033 16.3225 12.5897H16.5225ZM16.5225 15.6666V12.5897H16.3225V15.6666H16.5225ZM16.6735 16.031C16.5768 15.9344 16.5225 15.8033 16.5225 15.6666H16.3225C16.3225 15.8563 16.3979 16.0382 16.5321 16.1723L16.6735 16.031ZM17.0379 16.182C16.9012 16.182 16.7702 16.1277 16.6735 16.031L16.5321 16.1723C16.6662 16.3066 16.8482 16.382 17.0379 16.382V16.182ZM17.3456 16.182H17.0379V16.382H17.3456V16.182ZM19.2331 15.4002C18.7325 15.9007 18.0535 16.182 17.3456 16.182V16.382C18.1066 16.382 18.8364 16.0797 19.3745 15.5416L19.2331 15.4002ZM20.0149 13.5127C20.0149 14.2207 19.7336 14.8996 19.2331 15.4002L19.3745 15.5416C19.9126 15.0035 20.2149 14.2737 20.2149 13.5127H20.0149ZM20.0149 12.5897V13.5127H20.2149V12.5897H20.0149ZM12.7302 5.30498C16.7532 5.30498 20.0149 8.56667 20.0149 12.5897H20.2149C20.2149 8.45622 16.8636 5.10498 12.7302 5.10498V5.30498ZM5.44561 12.5897C5.44561 8.56667 8.7073 5.30498 12.7302 5.30498V5.10498C8.59685 5.10498 5.24561 8.45622 5.24561 12.5897H5.44561ZM12.7302 19.8743C8.7073 19.8743 5.44561 16.6126 5.44561 12.5897H5.24561C5.24561 16.7229 8.59685 20.0743 12.7302 20.0743V19.8743ZM13.734 19.5567C13.44 19.7633 13.0895 19.8742 12.7302 19.8743V20.0743C13.1306 20.0742 13.5213 19.9507 13.849 19.7204L13.734 19.5567ZM14.3728 18.7199C14.251 19.058 14.0279 19.3501 13.734 19.5567L13.849 19.7204C14.1766 19.4902 14.4252 19.1645 14.5609 18.7878L14.3728 18.7199ZM14.4145 17.6681C14.5091 18.0147 14.4946 18.3819 14.3728 18.7199L14.5609 18.7878C14.6967 18.411 14.7129 18.0017 14.6074 17.6154L14.4145 17.6681ZM13.8439 16.7833C14.1206 17.0126 14.3199 17.3215 14.4145 17.6681L14.6074 17.6154C14.5019 17.2291 14.2799 16.8848 13.9715 16.6294L13.8439 16.7833ZM12.8685 16.3875C13.2266 16.4159 13.5673 16.5541 13.8439 16.7833L13.9715 16.6294C13.6631 16.3739 13.2835 16.2198 12.8843 16.1881L12.8685 16.3875ZM11.8427 16.6242C12.1521 16.4416 12.5103 16.359 12.8685 16.3875L12.8843 16.1881C12.4852 16.1562 12.0859 16.2485 11.7411 16.452L11.8427 16.6242ZM11.1394 17.4076C11.2877 17.0803 11.5333 16.8068 11.8427 16.6242L11.7411 16.452C11.3962 16.6553 11.1225 16.9602 10.9573 17.3251L11.1394 17.4076ZM11.0143 18.4529C10.9475 18.0999 10.9912 17.7349 11.1394 17.4076L10.9573 17.3251C10.792 17.6898 10.7434 18.0966 10.8178 18.49L11.0143 18.4529ZM7.71154 16.3219C8.50496 17.3881 9.61686 18.1743 10.8865 18.5669L10.9456 18.3759C9.71649 17.9957 8.64008 17.2346 7.87199 16.2025L7.71154 16.3219ZM8.11484 16.182C8.01105 16.1822 7.90713 16.1759 7.80413 16.163L7.7794 16.3615C7.89075 16.3753 8.00286 16.3822 8.11507 16.382L8.11484 16.182ZM8.42254 16.182H8.11484L8.11507 16.382H8.42254V16.182ZM8.78697 16.031C8.69031 16.1277 8.55922 16.182 8.42254 16.182V16.382C8.61227 16.382 8.79423 16.3066 8.92839 16.1723L8.78697 16.031ZM8.93792 15.6666C8.93792 15.8033 8.88362 15.9344 8.78697 16.031L8.92839 16.1723C9.06255 16.0382 9.13792 15.8563 9.13792 15.6666H8.93792ZM8.93792 12.5896V15.6666H9.13792V12.5897L8.93792 12.5896ZM8.77206 11.8467C8.88132 12.0791 8.93795 12.3327 8.93792 12.5896L9.13792 12.5897C9.13795 12.3033 9.07483 12.0205 8.95306 11.7615L8.77206 11.8467ZM8.30583 11.2448C8.50361 11.4086 8.6628 11.6142 8.77206 11.8467L8.95306 11.7615C8.83129 11.5024 8.65387 11.2735 8.43343 11.0908L8.30583 11.2448ZM7.62785 10.8986C7.87656 10.9627 8.10805 11.0809 8.30583 11.2448L8.43343 11.0908C8.213 10.9082 7.95499 10.7764 7.6778 10.7049L7.62785 10.8986ZM12.7302 17.4127C12.5405 17.4127 12.3585 17.488 12.2244 17.6222L12.3658 17.7637C12.4625 17.667 12.5935 17.6126 12.7302 17.6126V17.4127ZM13.2361 17.6222C13.1019 17.488 12.92 17.4127 12.7302 17.4127V17.6126C12.8669 17.6126 12.998 17.667 13.0947 17.7637L13.2361 17.6222ZM13.4456 18.128C13.4456 17.9383 13.3703 17.7563 13.2361 17.6222L13.0947 17.7637C13.1913 17.8603 13.2456 17.9914 13.2456 18.128H13.4456ZM13.2361 18.634C13.3703 18.4998 13.4456 18.3177 13.4456 18.128H13.2456C13.2456 18.2647 13.1913 18.3959 13.0947 18.4925L13.2361 18.634ZM12.7302 18.8435C12.92 18.8435 13.1019 18.7681 13.2361 18.634L13.0947 18.4925C12.998 18.5892 12.8669 18.6434 12.7302 18.6434V18.8435ZM12.2244 18.634C12.3585 18.7681 12.5405 18.8435 12.7302 18.8435V18.6434C12.5935 18.6434 12.4625 18.5892 12.3658 18.4925L12.2244 18.634ZM12.0149 18.128C12.0149 18.3177 12.0902 18.4998 12.2244 18.634L12.3658 18.4925C12.2692 18.3959 12.2149 18.2647 12.2149 18.128H12.0149ZM12.2244 17.6222C12.0902 17.7563 12.0149 17.9383 12.0149 18.128H12.2149C12.2149 17.9914 12.2692 17.8603 12.3658 17.7637L12.2244 17.6222ZM18.9841 13.5127V12.5897H18.7841V13.5127H18.9841ZM18.6149 14.5492C18.8537 14.2566 18.9842 13.8904 18.9841 13.5127H18.7841C18.7842 13.8444 18.6696 14.1658 18.4599 14.4227L18.6149 14.5492ZM17.6733 15.1184C18.0434 15.0429 18.376 14.8418 18.6149 14.5492L18.4599 14.4227C18.2502 14.6796 17.9582 14.856 17.6333 14.9223L17.6733 15.1184ZM17.5533 12.5897V15.0204H17.7533V12.5897H17.5533ZM17.7628 12.0838C17.6287 12.218 17.5533 12.3999 17.5533 12.5897H17.7533C17.7533 12.453 17.8076 12.3219 17.9043 12.2252L17.7628 12.0838ZM18.2687 11.8743C18.079 11.8743 17.897 11.9496 17.7628 12.0838L17.9043 12.2252C18.0009 12.1286 18.132 12.0743 18.2687 12.0743V11.8743ZM18.7746 12.0838C18.6404 11.9496 18.4584 11.8743 18.2687 11.8743V12.0743C18.4054 12.0743 18.5365 12.1286 18.6331 12.2252L18.7746 12.0838ZM18.9841 12.5897C18.9841 12.3999 18.9087 12.218 18.7746 12.0838L18.6331 12.2252C18.7298 12.3219 18.7841 12.453 18.7841 12.5897H18.9841ZM7.90715 15.0204V12.5897H7.70715V15.0204H7.90715ZM6.84559 14.5492C7.08445 14.8418 7.41707 15.0429 7.78715 15.1184L7.82715 14.9223C7.50224 14.856 7.21022 14.6796 7.00052 14.4227L6.84559 14.5492ZM6.47638 13.5127C6.4763 13.8904 6.60673 14.2566 6.84559 14.5492L7.00052 14.4227C6.79082 14.1658 6.67631 13.8444 6.67638 13.5127H6.47638ZM6.47638 12.5897V13.5127H6.67638V12.5897H6.47638ZM6.68591 12.0838C6.55175 12.218 6.47638 12.3999 6.47638 12.5897H6.67638C6.67638 12.453 6.73068 12.3219 6.82733 12.2252L6.68591 12.0838ZM7.19177 11.8743C7.00203 11.8743 6.82007 11.9496 6.68591 12.0838L6.82733 12.2252C6.92399 12.1286 7.05508 12.0743 7.19177 12.0743V11.8743ZM7.69762 12.0838C7.56346 11.9496 7.3815 11.8743 7.19177 11.8743V12.0743C7.32845 12.0743 7.45955 12.1286 7.5562 12.2252L7.69762 12.0838ZM7.90715 12.5897C7.90715 12.3999 7.83178 12.218 7.69762 12.0838L7.5562 12.2252C7.65285 12.3219 7.70715 12.453 7.70715 12.5897H7.90715ZM10.8694 9.32077C10.7569 9.39729 10.6186 9.42621 10.4849 9.40122L10.4481 9.59781C10.6338 9.63251 10.8257 9.59237 10.9819 9.48615L10.8694 9.32077ZM14.591 9.32113C14.0811 8.96953 13.4026 8.79715 12.7299 8.79715C12.0573 8.79715 11.3793 8.96917 10.8694 9.32077L10.9819 9.48615C11.451 9.16268 12.0878 8.99715 12.7299 8.99715C13.3721 8.99715 14.0083 9.16232 14.4775 9.48579L14.591 9.32113ZM14.975 9.40122C14.8412 9.42621 14.7035 9.39765 14.591 9.32113L14.4775 9.48579C14.6337 9.59201 14.826 9.63251 15.0117 9.59781L14.975 9.40122ZM15.3045 9.18735C15.2272 9.29934 15.1087 9.37622 14.975 9.40122L15.0117 9.59781C15.1974 9.56312 15.3618 9.4564 15.4691 9.30095L15.3045 9.18735ZM15.3875 8.80341C15.4116 8.93734 15.3818 9.07535 15.3045 9.18735L15.4691 9.30095C15.5764 9.1455 15.6178 8.95392 15.5844 8.76802L15.3875 8.80341ZM15.1759 8.47245C15.2874 8.55051 15.3635 8.66948 15.3875 8.80341L15.5844 8.76802C15.551 8.58212 15.4454 8.41697 15.2907 8.30862L15.1759 8.47245ZM10.2833 8.47284C10.9638 8.00323 11.8448 7.76592 12.7299 7.76592C13.615 7.76592 14.4954 8.00284 15.1759 8.47245L15.2907 8.30862C14.5712 7.81208 13.6482 7.56592 12.7299 7.56592C11.8117 7.56592 10.8893 7.81169 10.1697 8.30823L10.2833 8.47284ZM10.0723 8.80341C10.0964 8.66948 10.1719 8.5509 10.2833 8.47284L10.1697 8.30823C10.015 8.41658 9.90886 8.58212 9.87544 8.76802L10.0723 8.80341ZM10.1554 9.18735C10.0781 9.07535 10.0482 8.93734 10.0723 8.80341L9.87544 8.76802C9.84202 8.95392 9.88348 9.1455 9.99076 9.30095L10.1554 9.18735ZM10.4849 9.40122C10.3511 9.37622 10.2327 9.29934 10.1554 9.18735L9.99076 9.30095C10.098 9.4564 10.2625 9.56312 10.4481 9.59781L10.4849 9.40122Z" fill="white"/>
</g>
</g>
<defs>
<clipPath id="clip0_1287_2329">
<rect width="24" height="24" fill="white" transform="translate(0.72998 0.589844)"/>
</clipPath>
</defs>
</svg>
