<svg width="25" height="25" viewBox="0 0 25 25" fill="none" xmlns="http://www.w3.org/2000/svg">
<g clip-path="url(#clip0_1287_2301)">
<path d="M22.1602 6.82664C21.4243 7.14787 20.6336 7.36502 19.8036 7.46265C20.6507 6.96276 21.3013 6.1712 21.6077 5.22794C20.8023 5.69851 19.921 6.03001 19.002 6.20812C18.2536 5.42309 17.1872 4.93262 16.007 4.93262C13.7409 4.93262 11.9038 6.74104 11.9038 8.97171C11.9038 9.2883 11.9401 9.59658 12.01 9.89224C8.59984 9.72374 5.57636 8.1157 3.55262 5.67189C3.19942 6.26845 2.99703 6.9623 2.99703 7.70256C2.99703 9.10395 3.72141 10.3403 4.82242 11.0646C4.17086 11.0445 3.53363 10.8713 2.96395 10.5594C2.96356 10.5762 2.96356 10.5931 2.96356 10.6102C2.96356 12.5672 4.37797 14.1997 6.255 14.5708C5.90265 14.6651 5.53912 14.7128 5.17398 14.7126C4.90957 14.7126 4.65254 14.6872 4.40195 14.64C4.92414 16.2447 6.43945 17.4126 8.23499 17.4451C6.8307 18.5286 5.06144 19.1743 3.13899 19.1743C2.80778 19.1743 2.48118 19.1552 2.16016 19.1177C3.97602 20.2639 6.13285 20.9326 8.45003 20.9326C15.9974 20.9326 20.1246 14.7777 20.1246 9.44003C20.1246 9.26492 20.1205 9.09072 20.1127 8.91745C20.9145 8.348 21.6101 7.63662 22.1602 6.82664Z" fill="white" fill-opacity="0.7"/>
</g>
<defs>
<clipPath id="clip0_1287_2301">
<rect width="24" height="24" fill="white" transform="translate(0.160156 0.589844)"/>
</clipPath>
</defs>
</svg>
